<svg width="20" height="20" viewBox="0 0 20 20" fill="none" xmlns="http://www.w3.org/2000/svg">
<path d="M10 4.28125C8.0701 4.28125 6.5 5.75322 6.5 7.5625C6.5 9.36022 8.04455 10.8438 10 10.8438C11.9796 10.8438 13.5 9.34046 13.5 7.5625C13.5 5.75322 11.9299 4.28125 10 4.28125ZM10 9.75729C8.70667 9.75729 7.65889 8.77171 7.65889 7.5625C7.65889 6.35631 8.7134 5.36771 10 5.36771C11.2866 5.36771 12.3372 6.35631 12.3372 7.5625C12.3372 8.75407 11.3138 9.75729 10 9.75729Z" fill="#312D75" stroke="#312D75" stroke-width="0.2"/>
<path d="M10 1C6.1402 1 3 3.94394 3 7.5625C3 8.78509 3.36124 9.97823 4.04491 11.0134L9.60154 19.4081C9.70798 19.569 9.89551 19.6667 10.0972 19.6667C10.0987 19.6667 10.1003 19.6667 10.1018 19.6667C10.3052 19.6652 10.4932 19.5644 10.5976 19.4008L16.0127 10.9247C16.6586 9.91144 17 8.74882 17 7.5625C17 3.94394 13.8598 1 10 1ZM15.0115 10.3632L10.0884 18.0693L5.03649 10.4371C4.46743 9.57551 4.15889 8.58151 4.15889 7.5625C4.15889 4.54703 6.7835 2.08646 10 2.08646C13.2165 2.08646 15.8372 4.54703 15.8372 7.5625C15.8372 8.55129 15.549 9.51987 15.0115 10.3632Z" fill="#312D75" stroke="#312D75" stroke-width="0.2"/>
</svg>
