<svg width="30" height="30" viewBox="0 0 30 30" fill="none" xmlns="http://www.w3.org/2000/svg">
<path fill-rule="evenodd" clip-rule="evenodd" d="M20.4367 26.9126H10.0519C6.23726 26.9126 3.31082 25.5347 4.14206 19.9893L5.10995 12.474C5.62236 9.70693 7.38733 8.64795 8.93595 8.64795H21.5982C23.1696 8.64795 24.8321 9.78664 25.4242 12.474L26.3921 19.9893C27.0981 24.9085 24.2514 26.9126 20.4367 26.9126Z" stroke="#312D75" stroke-width="1.5" stroke-linecap="round" stroke-linejoin="round"/>
<path opacity="0.4" d="M20.608 8.37467C20.608 5.40635 18.2017 3.00005 15.2333 3.00005V3.00005C13.804 2.99399 12.431 3.55757 11.4182 4.56616C10.4053 5.57476 9.83592 6.94528 9.83594 8.37467H9.83594" stroke="#312D75" stroke-width="1.5" stroke-linecap="round" stroke-linejoin="round"/>
<path d="M18.922 13.9771H18.8651" stroke="#312D75" stroke-width="1.5" stroke-linecap="round" stroke-linejoin="round"/>
<path d="M11.6681 13.9771H11.6112" stroke="#312D75" stroke-width="1.5" stroke-linecap="round" stroke-linejoin="round"/>
</svg>
