<?xml version="1.0" encoding="utf-8"?>
<!-- Generator: Adobe Illustrator 19.0.0, SVG Export Plug-In . SVG Version: 6.00 Build 0)  -->
<svg version="1.1" id="layer" xmlns="http://www.w3.org/2000/svg" xmlns:xlink="http://www.w3.org/1999/xlink" x="0px" y="0px"
	 viewBox="-153 -46 652 652" style="enable-background:new -153 -46 652 652;" xml:space="preserve">
<style type="text/css">
	.st0{fill:#EA5504;}
	.st1{fill:#FCC800;}
	.st2{fill:#F39700;}
	.st3{fill:#005137;}
</style>
<polygon class="st0" points="-131.3,201.1 -131.3,244.2 -33.5,244.2 -33.5,221.1 "/>
<polygon class="st1" points="77.7,244.2 -33.5,201.1 -33.5,221.2 "/>
<polygon class="st2" points="-33.5,244.2 77.7,244.2 -33.5,221.1 "/>
<polygon class="st1" points="333.2,298.3 77.9,244.2 333.2,329.1 "/>
<g>
	<path class="st3" d="M-96.4,329.1c0.6-3.5,0.6-6.8,0.6-10.2c0-9.4-2.6-15.3-4.9-17.9c-3.3-3.8-6.3-4.1-10.1-4.1h-6.5v46.3
		c0,0-0.9,0.1,3,0.1C-99.9,343.2-97.4,334.5-96.4,329.1 M-89.5,296c5.8,6.4,7.7,16.8,7.7,23.1c0,23.6-8.7,32.2-28,32.2h-21.5v-62.6
		h21.5C-103.2,288.7-95.5,289.5-89.5,296 M-47.6,328.7c-4.3,0.4-5.4,0.4-7.2,0.9c-3.4,0.8-6.4,2.7-6.4,7.3c0,0.9,0.1,1.9,0.3,2.9
		c0.9,3,3.1,3.9,5.6,3.9c1,0,3.6-0.1,5.4-1.8c2.2-2,2.3-4.8,2.3-6.8V328.7z M-40,309c3.8,3.3,3.7,8,3.7,11.3v29.6h-11.8l-0.1-2.8
		c0,0-4.1,3.9-12.9,3.9c-3.6,0-7.3-1-9.6-3.7c-1.8-1.9-3-5.1-3-9.3c0-1.7,0-6.9,5.3-10.5c3.3-2.2,6.2-2.8,13.8-3.7l7-0.7v-3.5
		c0-2.1-0.1-3.9-0.9-5.3c-1.4-2.4-4.3-2.4-5.3-2.4c-3,0-4.6,1.4-5.3,2.3c-1.4,1.7-1.5,4.1-1.6,5.9h-10.8c0-2-0.1-4.7,1.4-7.3
		c3.4-6.1,9.4-7.5,17.4-7.5c2.6,0,3.6,0.2,6.3,0.7C-43.8,306.5-42,307.2-40,309 M45,328.7c-4.2,0.4-5.4,0.4-7.2,0.9
		c-3.4,0.8-6.4,2.7-6.4,7.3c0,0.9,0.1,1.9,0.3,2.9c0.9,3,3.1,3.9,5.5,3.9c1.1,0,3.7-0.1,5.4-1.8c2.2-2,2.3-4.8,2.3-6.8V328.7z
		 M52.6,309c3.8,3.3,3.7,8,3.7,11.3v29.6H44.6l-0.1-2.8c0,0-4.2,3.9-12.9,3.9c-3.5,0-7.3-1-9.6-3.7c-1.7-1.9-3-5.1-3-9.3
		c0-1.7,0.1-6.9,5.3-10.5c3.3-2.2,6.1-2.8,13.8-3.7l7-0.7v-3.5c0-2.1-0.1-3.9-0.8-5.3c-1.5-2.4-4.3-2.4-5.3-2.4
		c-3,0-4.7,1.4-5.3,2.3c-1.4,1.7-1.5,4.1-1.6,5.9H21.2c0-2-0.1-4.7,1.4-7.3c3.4-6.1,9.4-7.5,17.4-7.5c2.6,0,3.6,0.2,6.2,0.7
		C48.8,306.5,50.6,307.2,52.6,309 M164.6,334.5c0.2-2.4,0.4-4.7,0.4-7.2c0-1.9-0.1-3.8-0.3-5.7c-0.2-2.7-0.8-9.6-7.4-9.6
		c-1.4,0-2.5,0.3-3.8,0.9c-3.5,2.1-4.1,6.5-4.3,8.8c-0.3,2.9-0.4,5.3-0.4,7c0,1.9,0.1,3.9,0.3,5.9c0.1,2.7,0.8,10,7.8,10
		c1.1,0,2.3-0.3,3.3-0.8C163.9,341.7,164.4,336.9,164.6,334.5 M173.3,311.6c4.3,4.9,4.3,12.1,4.3,15.9c0,4,0,12.1-4.9,17.4
		c-5.5,6.1-12.8,6.1-15.7,6.1c-3.1,0-4.8-0.2-7.9-1.1c-10.7-3.1-12.7-12.1-12.7-20.6c0-4.5,0-13.3,6.2-18.8
		c5.5-4.9,12.5-5.1,15.5-5.1C160.7,305.4,168.1,305.4,173.3,311.6 M222.6,319.5c-0.1-3.2-0.1-7.1-2.8-10.2c-1.2-1.4-4.1-3.6-9.9-3.6
		c-6.9,0-9.7,3-12.8,5.8v-4.9h-12.3v43.4h12.3v-29.3c0.1-2.3,0.2-5.3,3.8-7c0.8-0.3,2-0.7,3.4-0.7c5.3,0,5.8,4.5,5.9,5.9
		c0.1,1.4,0.1,2.8,0.1,4.6v26.5h12.3V319.5z M9.9,319.5c-0.1-3.2-0.1-7.1-2.8-10.2c-1.2-1.4-4-3.6-9.9-3.6c-6.9,0-9.7,3-12.8,5.8
		v-4.9h-12.3v43.4h12.3v-29.3c0.1-2.3,0.2-5.3,3.8-7c0.8-0.3,2-0.7,3.3-0.7c5.4,0,5.8,4.5,5.9,5.9c0.2,1.4,0.2,2.8,0.2,4.6v26.5H9.9
		V319.5z M65.4,306.5h12.3v5.1c2.4-2.1,6.5-5.9,13.9-5.9c8.4,0,10.8,5.1,11.4,6.7c5-4.8,8.4-6.7,13.2-6.7c2.3,0,4,0.4,5.5,1
		c6.6,2.5,6.8,8.4,6.9,12.2v31h-12.5v-28.3c-0.1-3.1-0.2-4.8-1-6.2c-0.2-0.4-1.4-2.5-4.5-2.5c-1.1,0-3.1,0.3-4,0.8
		c-3.4,1.7-3.6,4.5-3.6,6.8v29.3H90.8v-28.1c0-3.3,0.1-8.9-5.5-8.9c-1.2,0-3.4,0.4-4.5,1c-3.1,1.9-3.1,4.7-3.1,8.5v27.5H65.4V306.5z
		"/>
</g>
<polygon class="st0" points="77.8,244.2 333.1,244.3 333.1,298.3 "/>
<polygon class="st2" points="333.1,244.3 333.1,298.3 468.7,329.2 468.6,244.3 "/>
</svg>
