<svg width="267" height="294" viewBox="0 0 267 294" fill="none" xmlns="http://www.w3.org/2000/svg">
<circle cx="146" cy="118.151" r="93" fill="#DEEDFA"/>
<circle cx="26.5" cy="158.651" r="26.5" fill="#DEEDFA"/>
<circle cx="248.5" cy="57.6514" r="18.5" fill="#DEEDFA"/>
<ellipse cx="113.924" cy="274.785" rx="21.5" ry="10.5" transform="rotate(-25.1187 113.924 274.785)" fill="#DEEDFA"/>
<path d="M123.423 27.2575L122.141 31.5288C122.09 31.7007 122.273 31.8482 122.43 31.7611L130.955 27.0252C130.984 27.0087 131.018 27 131.052 27H141.3C141.41 27 141.5 26.9105 141.5 26.8V10.2C141.5 10.0895 141.41 10 141.3 10H111.2C111.09 10 111 10.0895 111 10.2V26.8C111 26.9105 111.09 27 111.2 27H123.231C123.365 27 123.461 27.1291 123.423 27.2575Z" fill="#FFC000"/>
<circle cx="126" cy="13" r="8" fill="#E82A2A"/>
<path d="M122.5 13L125 15.5L130 9.5" stroke="white" stroke-width="2"/>
<path d="M161.755 64.3354L175.271 66.7627C174.98 67.9586 168.304 70.8086 165.002 72.0841L161.755 64.3354Z" fill="#912E04"/>
<path d="M168.908 70.8274C163.357 74.2359 161.811 68.3795 162.156 65.0566C162.156 65.0566 164.075 62.6927 164.523 62.034C164.972 61.3754 165.863 59.2892 165.863 59.2892L179.19 56.5837L173.832 67.9475C173.533 68.3865 172.738 68.3432 168.908 70.8274Z" fill="#FFA171"/>
<path d="M161.384 70.3872C160.7 66.5738 160.467 66.4689 162.199 64.8751C162.199 64.8751 161.883 70.5085 167.2 70.9394C172.518 71.3703 162.068 74.2006 161.384 70.3872Z" fill="#F37F4E"/>
<path d="M176.5 62.3107C173.446 64.4464 167.198 63.069 164.501 62.1245L165.807 59.3233L178.787 57.2532L176.5 62.3107Z" fill="#F37F4E"/>
<path d="M160.629 26.1718C155.802 26.9384 161.713 33.1297 165.271 36.1295C166.743 41.4827 171.24 53.5605 177.46 59.0453C183.679 64.5301 185.198 58.5993 185.179 54.9484C194.772 56.8157 196.3 45.7779 195.865 40.0256C201.697 35.5195 198.264 31.6543 195.818 30.285C196.593 28.1841 197.306 22.3603 193.954 15.8724C190.603 9.38436 184.46 13.1822 181.807 15.8921C179.546 10.7769 176.119 12.3912 174.688 13.8377C172.248 9.86804 166.005 3.2656 160.555 8.61273C155.105 13.9599 158.333 22.5468 160.629 26.1718Z" fill="#5E2D1E"/>
<path d="M160.875 46.018C161.452 37.5098 165.292 32.2595 167.139 30.6978C170.666 34.1949 173.24 32.5713 174.087 31.3224C175.679 36.8895 178.98 36.849 180.431 36.1328C182.922 38.3198 181.128 45.434 179.919 48.7177C179.493 50.0882 179.68 51.5211 183.834 46.2887C187.988 41.0564 189.565 44.0987 189.834 46.274C178.688 62.5699 169.577 61.8162 164.488 60.3401C159.4 58.864 160.153 56.6533 160.875 46.018Z" fill="#FFA171"/>
<path d="M179.425 41.06C178.355 38.8492 175.829 38.4813 174.7 38.5737C174.182 38.3619 174.227 38.0448 174.315 37.9127C177.351 37.5827 178.987 39.8734 179.425 41.06Z" fill="#333333" stroke="black"/>
<ellipse cx="174.381" cy="42.9262" rx="1.02572" ry="1.63183" transform="rotate(22.2393 174.381 42.9262)" fill="#333333"/>
<path d="M166.19 33.8853C167.519 33.9855 168.844 35.5246 169.34 36.2817C167.545 34.661 166.059 34.7386 165.541 34.9799C165.203 34.5733 164.861 33.7851 166.19 33.8853Z" fill="#333333" stroke="black"/>
<ellipse cx="166.525" cy="39.7146" rx="1.02572" ry="1.63183" transform="rotate(22.2393 166.525 39.7146)" fill="#333333"/>
<path d="M188.258 46.4351C188.232 46.3963 188.204 46.3577 188.172 46.3201C188.068 46.4001 187.864 46.6737 187.489 47.3297C186.78 48.571 185.493 48.3938 184.938 48.15C186.427 45.3424 187.66 45.7081 188.172 46.3201C188.264 46.2488 188.277 46.3318 188.258 46.4351Z" fill="#F37F4E"/>
<path d="M172.275 52.1399C171.033 52.499 167.948 52.6205 166.461 52.6842C166.352 53.4453 166.509 54.4162 166.897 55.6832C170.864 58.917 173.646 51.7435 172.275 52.1399Z" fill="#5C0809"/>
<path d="M171.648 54.9057C170.141 53.5643 167.595 53.8531 166.511 54.1651C166.542 54.581 166.77 55.3792 166.88 55.7264C169.195 57.5796 170.979 55.9251 171.648 54.9057Z" fill="#E84C4F"/>
<path d="M164.861 47.8495C164.104 47.1372 167.163 44.1903 168.787 42.8059L166.975 48.7141C166.585 48.7227 165.617 48.5618 164.861 47.8495Z" fill="#F37F4E"/>
<path d="M174.265 180.676C178.736 175.084 194.692 167.926 202.112 165.046C204.735 167.988 207.266 179.417 208.204 184.764C205.436 184.935 189.609 195.112 182.041 200.179L174.265 180.676Z" fill="#312D75"/>
<path d="M185.635 128.26C183.704 124.68 181.797 120.176 181.084 118.371C184.545 112.831 192.036 102.284 194.32 104.414C197.174 107.077 199.032 126.052 199.321 128.809C199.609 131.567 187.28 158.556 190.518 161.024C193.756 163.491 193.344 171.885 193.259 174.599C193.174 177.314 191.253 181.261 189.429 180.673C187.969 180.202 185.424 174.979 184.335 172.426L183.912 173.571L182.796 174.211C179.46 166.825 188.048 132.735 185.635 128.26Z" fill="#FFA171"/>
<path d="M198.32 120.504L184.673 126.299L181.572 120.313C186.028 116.135 195.136 107.962 195.918 108.69C196.701 109.418 197.846 116.869 198.32 120.504Z" fill="#F37F4E"/>
<path d="M183.887 171.31L184.862 173.61L183.912 173.571L183.887 171.31Z" fill="#F37F4E"/>
<path d="M99.7218 191.798L101.948 186.006C105.476 185.969 112.491 186.26 112.328 187.717C112.124 189.539 108.349 193.418 105.783 195.481C103.731 197.131 100.887 193.713 99.7218 191.798Z" fill="#FFA171"/>
<path d="M94.4856 202.856C90.1769 197.296 96.3335 192.145 99.7986 189.706L101.107 187.844C100.988 189.255 100.084 189.975 102.215 191.014C107.92 193.794 116.535 180.488 119.186 183.197C121.307 185.364 120.586 188.944 119.467 190.32C105.435 197.892 98.7942 208.415 94.4856 202.856Z" fill="#F2F2F2"/>
<path d="M115.229 266.065L117.415 251.961L130.103 248.333L124.855 264.762L115.229 266.065Z" fill="#FFA171"/>
<path d="M102.453 277.35C102.204 273.642 110.314 265.428 114.4 261.784C119.524 265.335 124.194 263.209 125.889 261.702C126.746 261.991 128.237 263.214 127.339 265.798C126.217 269.028 114.458 280.272 110.665 281.46C107.632 282.411 105.239 281.739 104.422 281.284C103.87 281.517 102.702 281.057 102.453 277.35Z" fill="#F2F2F2"/>
<path d="M110.999 280.678C109.094 276.836 104.912 275.326 103.06 275.05C99.2465 283.815 108.263 282.651 111.199 282.023C113.548 281.52 122.71 272.061 126.997 267.395L127.394 265.764C125.219 269.495 115.558 277.262 110.999 280.678Z" fill="#333333"/>
<path d="M127.628 255.935L116.922 256.352L116.708 256.444L117.314 251.985L129.396 251.039L127.628 255.935Z" fill="#F37F4E"/>
<path d="M90.9655 183.442C87.5258 177.23 111.007 152.172 123.178 140.42L171.305 140.429C170.661 138.017 170.103 134.723 173.027 140.848C176.681 148.504 171.931 166.829 155.343 190.814C142.072 210.002 134.35 235.291 130.264 252.402L115.639 253.736C117.345 242.395 117.573 237.124 118.697 224.455C119.836 211.615 126.674 186.105 130.741 174.987C124.957 179.625 112.481 189.045 108.848 189.619C104.306 190.337 95.2651 191.206 90.9655 183.442Z" fill="#E82A2A"/>
<path d="M151.932 186.659C160.779 174.763 165.491 157.97 166.741 151.061C169.012 144.496 173.662 134.501 174.101 147.046C174.65 162.727 159.583 185.979 156.023 189.959C152.463 193.938 145.579 207.234 140.387 219.886C136.234 230.007 131.9 245.811 130.252 252.448L115.875 253.554L128.178 249.927C132.41 233.795 143.085 198.556 151.932 186.659Z" fill="#CD1B1B"/>
<path d="M98.654 200.319C97.3487 198.428 94.8049 196.551 93.6962 195.849C90.1053 204.764 96.3282 205.208 99.8886 204.315C106.377 199.673 119.377 190.374 119.467 190.319C119.557 190.264 119.9 189.593 120.06 189.264L100.076 203.545C100.146 203.258 99.9593 202.211 98.654 200.319Z" fill="#333333"/>
<path d="M135.642 163.499C134.066 167.146 130.911 174.574 130.896 175.108C130.327 176.744 113.355 187.632 110.752 189.061C108.977 190.036 104.672 190.076 101.876 189.934C101.387 189.987 100.952 189.961 100.579 189.848C100.952 189.879 101.391 189.909 101.876 189.934C108.848 189.179 126.934 172.379 135.642 163.499Z" fill="#CD1B1B"/>
<path d="M111.467 101.181C116.255 102.805 130.966 97.4221 137.873 94.4668C137.962 94.4288 138.008 94.3374 137.986 94.2435C136.505 87.9001 131.751 76.9014 124.232 82.4558C114.754 89.4573 117.378 54.6347 118.833 52.2059C120.288 49.777 114.417 43.9329 113.408 43.5433C112.735 43.2832 111.117 44.8587 110.031 46.0852C109.89 46.2447 109.617 46.1059 109.668 45.899L111.177 39.7C111.222 39.5163 111.013 39.3813 110.867 39.5014C109.225 40.8532 106.305 43.659 104.922 46.4678C103.024 50.3242 108.954 60.2615 109.663 63.4573C110.373 66.6532 105.439 99.1378 111.467 101.181Z" fill="#FFA171"/>
<path d="M109.955 99.7093C114.84 101.09 121.532 88.8199 124.267 82.512L124.586 99.3366C123.145 99.8015 119.289 100.869 115.394 101.417C111.498 101.966 110.145 100.507 109.955 99.7093Z" fill="#F37F4E"/>
<path d="M111.405 63.5937L108.307 59.9602C109.888 63.3203 109.748 64.4859 109.709 65.436C110.028 64.1223 110.852 63.7629 111.405 63.5937Z" fill="#F37F4E"/>
<path d="M116.711 56.5838C117.228 56.0378 117.889 55.0951 118.621 52.682L118.085 55.6707C118.085 55.6707 117.906 56.011 117.557 56.2619C117.208 56.5129 116.711 56.5838 116.711 56.5838Z" fill="#F37F4E"/>
<path d="M175.327 66.7283C162.506 75.0848 160.925 68.5961 162.399 64.4445C156.438 58.6552 134.706 71.8257 124.403 78.9944L122.629 105.003L141.431 93.4092C140.576 102.913 126.294 127.728 117.967 143.072C134.686 163.803 163.702 153.039 176.045 146.559C173.692 143.453 173.953 126.312 175.745 112.512L179.185 124.003L200.677 108.458C189.993 101.49 192.324 79.696 175.327 66.7283Z" fill="#312D75"/>
<path d="M170.01 101.183L175.778 112.377C174.344 121.893 174.479 135.909 174.726 141.728C168.256 123.837 168.886 107.244 170.01 101.183Z" fill="#142050"/>
<path d="M141.432 93.6016L142.694 89.2063C142.694 89.2063 139.627 92.3462 133.5 94.6456C127.374 96.9449 123.221 96.4616 123.221 96.4616L122.629 105.003L141.431 93.4094L141.432 93.6016Z" fill="#142050"/>
<path d="M108.297 50.5696L112.609 33.3759C112.75 32.8113 113.342 32.4865 113.895 32.6703L123.348 35.8174C123.849 35.9843 124.134 36.5125 123.998 37.0231L119.449 54.1374C119.3 54.6945 118.713 55.0114 118.166 54.8293L108.951 51.7616C108.455 51.5964 108.17 51.0768 108.297 50.5696Z" fill="#312D75"/>
</svg>
