<svg width="95" height="24" viewBox="0 0 95 24" fill="none" xmlns="http://www.w3.org/2000/svg">
<path d="M2.27336 15.2633H3.30025C3.88638 15.2633 4.35981 15.31 4.88193 15.9127C5.25135 16.3295 5.65743 17.2504 5.65743 18.74C5.65743 19.2748 5.66134 19.8042 5.56008 20.3484C5.3974 21.2065 5.00129 22.5822 2.73614 22.5822C2.13 22.5822 2.27336 22.5665 2.27336 22.5665V15.2642V15.2633ZM3.43828 23.8518C6.48695 23.8518 7.85191 22.4915 7.85191 18.776C7.85191 17.7938 7.56317 16.1475 6.64832 15.1432C5.70211 14.1123 4.47851 13.9836 3.44495 13.9836H0.046875V23.8518H3.43828Z" fill="#046148"/>
<path d="M13.0609 21.2959C13.0609 21.6227 13.0515 22.0614 12.7048 22.3755C12.414 22.6315 12.0046 22.6509 11.8486 22.6509C11.4619 22.6509 11.1138 22.5102 10.9671 22.0321C10.9304 21.8814 10.9157 21.7294 10.9157 21.584C10.9157 20.8632 11.3938 20.5598 11.9252 20.4304C12.2038 20.3659 12.3913 20.3537 13.0608 20.2979V21.2961L13.0609 21.2959ZM13.0609 19.4082L11.95 19.5175C10.753 19.6548 10.2949 19.7641 9.78282 20.1043C8.95596 20.6665 8.94531 21.4886 8.94531 21.7587C8.94531 22.4328 9.14992 22.9403 9.42876 23.2323C9.79614 23.6604 10.3783 23.8171 10.9404 23.8171C12.3187 23.8171 12.9762 23.191 12.9762 23.191L12.9856 23.6364H14.844V18.9681C14.844 18.4426 14.8566 17.7038 14.2539 17.181C13.9385 16.9109 13.6624 16.7863 13.2357 16.7256C12.8116 16.6494 12.6642 16.6187 12.2508 16.6187C10.9972 16.6187 10.0516 16.8393 9.51285 17.7983C9.28161 18.2138 9.29352 18.6305 9.29352 18.9493H10.9972C11.0129 18.6713 11.0254 18.2864 11.2425 18.019C11.3525 17.8671 11.61 17.6503 12.0867 17.6503C12.2421 17.6503 12.6935 17.6503 12.9236 18.0264C13.0517 18.2485 13.0624 18.5372 13.0624 18.8646V19.408L13.0609 19.4082Z" fill="#046148"/>
<path d="M27.8544 21.2959C27.8544 21.6227 27.8451 22.0614 27.4957 22.3755C27.2124 22.6315 26.8015 22.6509 26.6355 22.6509C26.2514 22.6509 25.9087 22.5102 25.76 22.0321C25.7227 21.8814 25.712 21.7294 25.712 21.584C25.712 20.8632 26.1875 20.5598 26.7216 20.4304C27.0001 20.3659 27.1857 20.3537 27.8545 20.2979V21.2961L27.8544 21.2959ZM27.8544 19.4082L26.7482 19.5175C25.5439 19.6548 25.0925 19.7641 24.577 20.1043C23.7549 20.6665 23.7422 21.4886 23.7422 21.7587C23.7422 22.4328 23.9408 22.9403 24.2169 23.2323C24.5897 23.6604 25.1752 23.8171 25.7346 23.8171C27.1163 23.8171 27.7724 23.191 27.7724 23.191L27.7818 23.6364H29.6336V18.9681C29.6336 18.4426 29.6493 17.7038 29.0501 17.181C28.7347 16.9109 28.4533 16.7863 28.0319 16.7256C27.6058 16.6494 27.4604 16.6187 27.0444 16.6187C25.7914 16.6187 24.8478 16.8393 24.3057 17.7983C24.0776 18.2138 24.0924 18.6305 24.0924 18.9493H25.7914C25.8071 18.6713 25.8196 18.2864 26.0374 18.019C26.1461 17.8671 26.4035 17.6503 26.8809 17.6503C27.0363 17.6503 27.487 17.6503 27.7231 18.0264C27.845 18.2485 27.8556 18.5372 27.8556 18.8646V19.408L27.8544 19.4082Z" fill="#046148"/>
<path d="M55.8533 23.6361H53.9142V19.4578C53.9142 19.1906 53.9142 18.9677 53.8923 18.7403C53.8734 18.5216 53.8108 17.8122 52.9654 17.8122C52.7414 17.8122 52.5513 17.8676 52.4299 17.919C51.8585 18.181 51.8438 18.6452 51.8298 19.0139V23.6362H49.8867V16.7988H51.8298V17.5763C52.3179 17.1395 52.7594 16.6614 53.8496 16.6614C54.7651 16.6614 55.2186 17.0161 55.406 17.2355C55.8374 17.7203 55.8374 18.3491 55.854 18.8392V23.6362L55.8533 23.6361Z" fill="#046148"/>
<path d="M22.3157 23.6361H20.378V19.4578C20.378 19.1906 20.378 18.9677 20.346 18.7403C20.3335 18.5216 20.2674 17.8122 19.4172 17.8122C19.2003 17.8122 19.0104 17.8676 18.889 17.919C18.3162 18.181 18.2996 18.6452 18.2836 19.0139V23.6362H16.3418V16.7988H18.2836V17.5763C18.781 17.1395 19.2171 16.6614 20.306 16.6614C21.2269 16.6614 21.6723 17.0161 21.865 17.2355C22.3004 17.7203 22.3004 18.3491 22.3158 18.8392V23.6362L22.3157 23.6361Z" fill="#046148"/>
<path d="M31.0586 16.7954H32.9997V17.5909C33.3724 17.2582 34.0299 16.6554 35.1955 16.6554C36.5291 16.6554 36.8999 17.4515 36.9906 17.7143C37.7847 16.9461 38.3068 16.6554 39.0677 16.6554C39.4404 16.6554 39.6958 16.7162 39.9425 16.8061C40.9881 17.2075 41.0108 18.137 41.0301 18.7398V23.6316H39.055V19.1759C39.0456 18.6918 39.03 18.4178 38.9043 18.2031C38.8792 18.1476 38.6862 17.807 38.1955 17.807C38.0294 17.807 37.7127 17.8471 37.564 17.9289C37.0206 18.1883 36.9999 18.6397 36.9906 19.0058V23.6315H35.0661V19.2045C35.0661 18.6784 35.0724 17.8068 34.196 17.8068C33.9979 17.8068 33.6532 17.8629 33.4831 17.9569C32.9997 18.2549 32.9864 18.6918 32.9997 19.2999V23.6315H31.0586V16.7954V16.7954Z" fill="#046148"/>
<path d="M46.7613 20.0697C46.7613 20.4578 46.7456 20.8306 46.7052 21.2066C46.6645 21.5841 46.5984 22.3429 46.0171 22.6616C45.8498 22.7415 45.6737 22.7835 45.493 22.7835C44.3921 22.7835 44.2927 21.6286 44.27 21.2065C44.245 20.8918 44.2252 20.5837 44.2252 20.2776C44.2252 20.0041 44.244 19.6242 44.2838 19.176C44.3233 18.814 44.4038 18.1212 44.964 17.7938C45.1554 17.697 45.3394 17.6572 45.5534 17.6572C46.5983 17.6572 46.693 18.7534 46.7177 19.1762C46.7459 19.4757 46.7609 19.777 46.7609 20.0697L46.7613 20.0697ZM48.7407 20.1044C48.7407 19.4976 48.7407 18.3621 48.0659 17.5912C47.2517 16.619 46.0861 16.619 45.6734 16.619C45.1946 16.619 44.0937 16.6378 43.2295 17.4219C42.252 18.2934 42.252 19.685 42.252 20.3892C42.252 21.7255 42.5534 23.1384 44.2437 23.6319C44.7358 23.782 44.9972 23.8086 45.4926 23.8086C45.9561 23.8086 47.115 23.8086 47.9759 22.8517C48.7407 22.0049 48.7407 20.7353 48.7407 20.1045" fill="#046148"/>
<path d="M15.0636 7.01855H33.0248L17.0947 2.13255L15.0636 3.22374L8.16992 5.00259L15.0636 7.01855Z" fill="#EF9826"/>
<path d="M0.046875 0.0476847V7.01855H15.0662V3.22372L0.046875 0.0476847Z" fill="#EB712D"/>
<path d="M33.0331 7.01855L15.0645 0.047718L15.0672 3.22374L33.0332 7.01855H33.0331Z" fill="#FEC02B"/>
<path d="M94.9527 20.1223V7.0141H70.7607L65.7324 10.6391L70.7607 15.0072L94.9527 20.1223Z" fill="#EF9826"/>
<path d="M70.7601 15.0075L64.184 9.33784L33.0352 7.02374L70.7601 20.1306V15.0075Z" fill="#FEC02B"/>
<path d="M33.0254 7.01405V7.0203L70.7584 15.0054V7.01563H33.0254V7.01405Z" fill="#EB712D"/>
</svg>
