<svg width="20" height="21" viewBox="0 0 20 21" fill="none" xmlns="http://www.w3.org/2000/svg">
<path fill-rule="evenodd" clip-rule="evenodd" d="M10 19.3333C15.1547 19.3333 19.3333 15.1547 19.3333 10C19.3333 4.84534 15.1547 0.666667 10 0.666667C4.84534 0.666667 0.666667 4.84534 0.666667 10C0.666667 15.1547 4.84534 19.3333 10 19.3333ZM10 20C15.5228 20 20 15.5228 20 10C20 4.47715 15.5228 0 10 0C4.47715 0 0 4.47715 0 10C0 15.5228 4.47715 20 10 20Z" fill="#312D75"/>
<path fill-rule="evenodd" clip-rule="evenodd" d="M14.0003 5.33341H6.00033C5.63214 5.33341 5.33366 5.63189 5.33366 6.00008V14.0001C5.33366 14.3683 5.63214 14.6667 6.00033 14.6667H14.0003C14.3685 14.6667 14.667 14.3683 14.667 14.0001V6.00008C14.667 5.63189 14.3685 5.33341 14.0003 5.33341ZM6.00033 4.66675C5.26395 4.66675 4.66699 5.2637 4.66699 6.00008V14.0001C4.66699 14.7365 5.26395 15.3334 6.00033 15.3334H14.0003C14.7367 15.3334 15.3337 14.7365 15.3337 14.0001V6.00008C15.3337 5.2637 14.7367 4.66675 14.0003 4.66675H6.00033Z" fill="#312D75"/>
<path fill-rule="evenodd" clip-rule="evenodd" d="M11.3333 5.33341H8.66667L8.66667 11.3334H11.3333V5.33341ZM8.66667 4.66675C8.29848 4.66675 8 4.96522 8 5.33341V11.3334C8 11.7016 8.29848 12.0001 8.66667 12.0001H11.3333C11.7015 12.0001 12 11.7016 12 11.3334V5.33341C12 4.96522 11.7015 4.66675 11.3333 4.66675H8.66667Z" fill="#312D75"/>
</svg>
