<svg width="20" height="21" viewBox="0 0 20 21" fill="none" xmlns="http://www.w3.org/2000/svg">
<path fill-rule="evenodd" clip-rule="evenodd" d="M10 19.3333C15.1547 19.3333 19.3333 15.1547 19.3333 10C19.3333 4.84534 15.1547 0.666667 10 0.666667C4.84534 0.666667 0.666667 4.84534 0.666667 10C0.666667 15.1547 4.84534 19.3333 10 19.3333ZM10 20C15.5228 20 20 15.5228 20 10C20 4.47715 15.5228 0 10 0C4.47715 0 0 4.47715 0 10C0 15.5228 4.47715 20 10 20Z" fill="#312D75"/>
<path d="M1.67188 9.66667C1.67188 9.48257 1.82111 9.33333 2.00521 9.33333H3.33854C3.52264 9.33333 3.67188 9.48257 3.67188 9.66667C3.67188 9.85076 3.52264 10 3.33854 10H2.00521C1.82111 10 1.67188 9.85076 1.67188 9.66667Z" fill="#312D75"/>
<path d="M18.3385 9.66667C18.3385 9.48257 18.1893 9.33333 18.0052 9.33333H16.6719C16.4878 9.33333 16.3385 9.48257 16.3385 9.66667C16.3385 9.85076 16.4878 10 16.6719 10H18.0052C18.1893 10 18.3385 9.85076 18.3385 9.66667Z" fill="#312D75"/>
<path d="M5.83488 2.4519C5.99431 2.35986 6.19817 2.41448 6.29022 2.57391L6.95689 3.72861C7.04893 3.88804 6.99431 4.09191 6.83488 4.18396C6.67545 4.276 6.47158 4.22138 6.37954 4.06195L5.71287 2.90725C5.62082 2.74782 5.67545 2.54395 5.83488 2.4519Z" fill="#312D75"/>
<path d="M17.2221 5.5C17.13 5.34057 16.9262 5.28594 16.7667 5.37799L15.612 6.04466C15.4526 6.13671 15.398 6.34057 15.49 6.5C15.5821 6.65943 15.7859 6.71406 15.9454 6.62201L17.1001 5.95534C17.2595 5.86329 17.3141 5.65943 17.2221 5.5Z" fill="#312D75"/>
<path d="M2.7863 5.50367C2.87834 5.34423 3.08221 5.28961 3.24164 5.38166L4.39634 6.04832C4.55577 6.14037 4.61039 6.34423 4.51835 6.50367C4.4263 6.6631 4.22244 6.71772 4.063 6.62567L2.9083 5.95901C2.74887 5.86696 2.69425 5.6631 2.7863 5.50367Z" fill="#312D75"/>
<path d="M14.172 2.44979C14.0125 2.35774 13.8087 2.41237 13.7166 2.5718L13.0499 3.7265C12.9579 3.88593 13.0125 4.08979 13.172 4.18184C13.3314 4.27389 13.5353 4.21926 13.6273 4.05983L14.294 2.90513C14.386 2.7457 14.3314 2.54184 14.172 2.44979Z" fill="#312D75"/>
<path fill-rule="evenodd" clip-rule="evenodd" d="M10.0052 12.0483C10.9257 12.0483 11.6719 11.3021 11.6719 10.3817C11.6719 9.4612 10.9257 8.71501 10.0052 8.71501C9.08473 8.71501 8.33854 9.4612 8.33854 10.3817C8.33854 11.3021 9.08473 12.0483 10.0052 12.0483ZM10.0052 12.715C11.2939 12.715 12.3385 11.6703 12.3385 10.3817C12.3385 9.09301 11.2939 8.04834 10.0052 8.04834C8.71654 8.04834 7.67188 9.09301 7.67188 10.3817C7.67188 11.6703 8.71654 12.715 10.0052 12.715Z" fill="#312D75"/>
<path d="M9.67188 0.259277H10.3385V8.54834H9.67188V0.259277Z" fill="#312D75"/>
</svg>
