<svg width="20" height="20" viewBox="0 0 20 20" fill="none" xmlns="http://www.w3.org/2000/svg">
<path fill-rule="evenodd" clip-rule="evenodd" d="M10 19.3333C15.1547 19.3333 19.3333 15.1547 19.3333 10C19.3333 4.84534 15.1547 0.666667 10 0.666667C4.84534 0.666667 0.666667 4.84534 0.666667 10C0.666667 15.1547 4.84534 19.3333 10 19.3333ZM10 20C15.5228 20 20 15.5228 20 10C20 4.47715 15.5228 0 10 0C4.47715 0 0 4.47715 0 10C0 15.5228 4.47715 20 10 20Z" fill="#312D75"/>
<path fill-rule="evenodd" clip-rule="evenodd" d="M15.4477 7.64298L17.569 9.7643C17.6992 9.89447 17.6992 10.1055 17.569 10.2357L15.4477 12.357C15.3175 12.4872 15.1065 12.4872 14.9763 12.357C14.8461 12.2268 14.8461 12.0158 14.9763 11.8856L16.5286 10.3333H9.33333V9.66667H16.5286L14.9763 8.11438C14.8461 7.98421 14.8461 7.77315 14.9763 7.64298C15.1065 7.5128 15.3175 7.5128 15.4477 7.64298Z" fill="#312D75"/>
<path fill-rule="evenodd" clip-rule="evenodd" d="M4.55229 7.64298L2.43096 9.7643C2.30079 9.89447 2.30079 10.1055 2.43096 10.2357L4.55229 12.357C4.68246 12.4872 4.89351 12.4872 5.02369 12.357C5.15386 12.2268 5.15386 12.0158 5.02369 11.8856L3.4714 10.3333H10.6667V9.66667H3.4714L5.02369 8.11438C5.15386 7.98421 5.15386 7.77315 5.02369 7.64298C4.89351 7.5128 4.68246 7.5128 4.55229 7.64298Z" fill="#312D75"/>
</svg>
