<svg width="20" height="20" viewBox="0 0 20 20" fill="none" xmlns="http://www.w3.org/2000/svg">
<path fill-rule="evenodd" clip-rule="evenodd" d="M10 19.3333C15.1547 19.3333 19.3333 15.1547 19.3333 10C19.3333 4.84534 15.1547 0.666667 10 0.666667C4.84534 0.666667 0.666667 4.84534 0.666667 10C0.666667 15.1547 4.84534 19.3333 10 19.3333ZM10 20C15.5228 20 20 15.5228 20 10C20 4.47715 15.5228 0 10 0C4.47715 0 0 4.47715 0 10C0 15.5228 4.47715 20 10 20Z" fill="#312D75"/>
<path fill-rule="evenodd" clip-rule="evenodd" d="M9.80469 16.4652L3.80469 13.5932L4.09252 12.9919L10.0925 15.8638L9.80469 16.4652Z" fill="#312D75"/>
<path fill-rule="evenodd" clip-rule="evenodd" d="M9.80469 16.4652L15.8047 13.5932L15.5169 12.9919L9.51686 15.8638L9.80469 16.4652Z" fill="#312D75"/>
<path fill-rule="evenodd" clip-rule="evenodd" d="M9.80469 8.92654L3.80469 6.25988L4.07545 5.65067L10.0754 8.31733L9.80469 8.92654Z" fill="#312D75"/>
<path fill-rule="evenodd" clip-rule="evenodd" d="M9.80469 8.92654L15.8047 6.25988L15.5339 5.65067L9.53393 8.31733L9.80469 8.92654Z" fill="#312D75"/>
<path fill-rule="evenodd" clip-rule="evenodd" d="M4.07552 6.20151L10.0755 3.53484L9.80476 2.92563L3.80476 5.5923L4.07552 6.20151Z" fill="#312D75"/>
<path fill-rule="evenodd" clip-rule="evenodd" d="M15.4831 6.20151L9.48307 3.53484L9.75383 2.92563L15.7538 5.5923L15.4831 6.20151Z" fill="#312D75"/>
<path fill-rule="evenodd" clip-rule="evenodd" d="M3.80469 13.5932V5.59321H4.47135V13.5932H3.80469Z" fill="#312D75"/>
<path fill-rule="evenodd" clip-rule="evenodd" d="M15.138 13.5932V5.59321H15.8047V13.5932H15.138Z" fill="#312D75"/>
<path fill-rule="evenodd" clip-rule="evenodd" d="M9.48307 15.909V8.57571H10.1497V15.909H9.48307Z" fill="#312D75"/>
</svg>
