<svg width="20" height="20" viewBox="0 0 20 20" fill="none" xmlns="http://www.w3.org/2000/svg">
<path fill-rule="evenodd" clip-rule="evenodd" d="M10 19.3333C15.1547 19.3333 19.3333 15.1547 19.3333 10C19.3333 4.84534 15.1547 0.666667 10 0.666667C4.84534 0.666667 0.666667 4.84534 0.666667 10C0.666667 15.1547 4.84534 19.3333 10 19.3333ZM10 20C15.5228 20 20 15.5228 20 10C20 4.47715 15.5228 0 10 0C4.47715 0 0 4.47715 0 10C0 15.5228 4.47715 20 10 20Z" fill="#312D75"/>
<path d="M7.66113 13.3333H7.14062V7.61621H3.65365V13.3333H3.13314V7.17188H7.66113V13.3333Z" fill="#312D75"/>
<path d="M9.05762 13.8623H8.59635L11.1693 7.17188H11.6263L9.05762 13.8623Z" fill="#312D75"/>
<path d="M16.0189 11.6068H13.2217L12.5869 13.3333H12.041L14.3727 7.17188H14.8678L17.1995 13.3333H16.6579L16.0189 11.6068ZM13.3825 11.1624H15.8538L14.6182 7.80664L13.3825 11.1624Z" fill="#312D75"/>
</svg>
