<svg width="20" height="21" viewBox="0 0 20 21" fill="none" xmlns="http://www.w3.org/2000/svg">
<path fill-rule="evenodd" clip-rule="evenodd" d="M10 19.3333C15.1547 19.3333 19.3333 15.1547 19.3333 10C19.3333 4.84534 15.1547 0.666667 10 0.666667C4.84534 0.666667 0.666667 4.84534 0.666667 10C0.666667 15.1547 4.84534 19.3333 10 19.3333ZM10 20C15.5228 20 20 15.5228 20 10C20 4.47715 15.5228 0 10 0C4.47715 0 0 4.47715 0 10C0 15.5228 4.47715 20 10 20Z" fill="#312D75"/>
<path fill-rule="evenodd" clip-rule="evenodd" d="M8.96264 12.3093L8.71407 12.4662C8.06481 12.8763 7.63549 13.5987 7.63549 14.421C7.63549 15.6967 8.66963 16.7308 9.94531 16.7308C11.221 16.7308 12.2551 15.6967 12.2551 14.421C12.2551 13.6423 11.8703 12.9534 11.2781 12.5342L11.0529 12.3748V4.24513C11.0529 3.66792 10.585 3.2 10.0078 3.2C9.43055 3.2 8.96264 3.66792 8.96264 4.24513V12.3093ZM8.4293 4.24513C8.4293 3.37337 9.136 2.66667 10.0078 2.66667C10.8795 2.66667 11.5862 3.37337 11.5862 4.24513V12.0989C12.3136 12.6138 12.7885 13.462 12.7885 14.421C12.7885 15.9912 11.5155 17.2642 9.94531 17.2642C8.37508 17.2642 7.10215 15.9912 7.10215 14.421C7.10215 13.4081 7.63183 12.5189 8.4293 12.0153V4.24513Z" fill="#312D75"/>
<path fill-rule="evenodd" clip-rule="evenodd" d="M10 15.0776C10.3956 15.0776 10.7164 14.7569 10.7164 14.3612C10.7164 13.9656 10.3956 13.6449 10 13.6449C9.60436 13.6449 9.28364 13.9656 9.28364 14.3612C9.28364 14.7569 9.60436 15.0776 10 15.0776ZM10 15.4109C10.5797 15.4109 11.0497 14.941 11.0497 14.3612C11.0497 13.7815 10.5797 13.3115 10 13.3115C9.42027 13.3115 8.9503 13.7815 8.9503 14.3612C8.9503 14.941 9.42027 15.4109 10 15.4109Z" fill="#312D75"/>
<path fill-rule="evenodd" clip-rule="evenodd" d="M16.3994 6.00003C16.5835 6.00003 16.7328 5.85079 16.7328 5.66668C16.7328 5.48258 16.5835 5.33333 16.3994 5.33333C16.2153 5.33333 16.0661 5.48258 16.0661 5.66668C16.0661 5.85079 16.2153 6.00003 16.3994 6.00003ZM16.3994 6.33336C16.7676 6.33336 17.0661 6.03488 17.0661 5.66668C17.0661 5.29848 16.7676 5 16.3994 5C16.0312 5 15.7327 5.29848 15.7327 5.66668C15.7327 6.03488 16.0312 6.33336 16.3994 6.33336Z" fill="#312D75"/>
<path fill-rule="evenodd" clip-rule="evenodd" d="M9.82695 13.3889L9.83989 5.99971L10.1732 6.00029L10.1603 13.3895L9.82695 13.3889Z" fill="#312D75"/>
<path d="M5.21191 4.81787C5.07384 4.81787 4.96191 4.70594 4.96191 4.56787C4.96191 4.4298 5.07384 4.31787 5.21191 4.31787H6.27051C6.40858 4.31787 6.52051 4.4298 6.52051 4.56787C6.52051 4.70594 6.40858 4.81787 6.27051 4.81787H5.21191Z" fill="#312D75"/>
<path d="M4.77051 6.11768C4.63244 6.11768 4.52051 6.00575 4.52051 5.86768C4.52051 5.7296 4.63244 5.61768 4.77051 5.61768H6.27051C6.40858 5.61768 6.52051 5.7296 6.52051 5.86768C6.52051 6.00575 6.40858 6.11768 6.27051 6.11768H4.77051Z" fill="#312D75"/>
<path d="M5.21191 7.41748C5.07384 7.41748 4.96191 7.30555 4.96191 7.16748C4.96191 7.02941 5.07384 6.91748 5.21191 6.91748H6.27011C6.40819 6.91748 6.52011 7.02941 6.52011 7.16748C6.52011 7.30555 6.40819 7.41748 6.27011 7.41748H5.21191Z" fill="#312D75"/>
<path d="M4.77051 8.71729C4.63244 8.71729 4.52051 8.60536 4.52051 8.46729C4.52051 8.32921 4.63244 8.21729 4.77051 8.21729H6.27051C6.40858 8.21729 6.52051 8.32921 6.52051 8.46729C6.52051 8.60536 6.40858 8.71729 6.27051 8.71729H4.77051Z" fill="#312D75"/>
<path d="M5.21191 10.0171C5.07384 10.0171 4.96191 9.90516 4.96191 9.76709C4.96191 9.62902 5.07384 9.51709 5.21191 9.51709H6.27051C6.40858 9.51709 6.52051 9.62902 6.52051 9.76709C6.52051 9.90516 6.40858 10.0171 6.27051 10.0171H5.21191Z" fill="#312D75"/>
<path d="M4.77051 11.3169C4.63244 11.3169 4.52051 11.205 4.52051 11.0669C4.52051 10.9288 4.63244 10.8169 4.77051 10.8169H6.27051C6.40858 10.8169 6.52051 10.9288 6.52051 11.0669C6.52051 11.205 6.40858 11.3169 6.27051 11.3169H4.77051Z" fill="#312D75"/>
<path d="M14.3997 10.3292C14.7265 10.3292 14.9997 10.2377 15.2193 10.0547C15.4416 9.8691 15.5618 9.62987 15.5801 9.33705H16.0311C16.0181 9.59589 15.937 9.83249 15.788 10.0469C15.639 10.2587 15.4403 10.4247 15.1919 10.5449C14.9461 10.6652 14.6821 10.7253 14.3997 10.7253C13.8428 10.7253 13.401 10.5319 13.0742 10.1449C12.75 9.75798 12.5879 9.2377 12.5879 8.58409V8.44291C12.5879 8.02459 12.6611 7.65465 12.8075 7.33307C12.9539 7.01149 13.1631 6.76312 13.435 6.58795C13.7095 6.41278 14.0298 6.3252 14.3958 6.3252C14.8612 6.3252 15.2442 6.46376 15.5448 6.74089C15.8481 7.01803 16.0102 7.38274 16.0311 7.83505H15.5801C15.5592 7.50301 15.439 7.23503 15.2193 7.0311C15.0023 6.82717 14.7278 6.72521 14.3958 6.72521C13.9722 6.72521 13.6428 6.87815 13.4075 7.18405C13.1748 7.48994 13.0585 7.91871 13.0585 8.47036V8.60762C13.0585 9.14881 13.1748 9.57105 13.4075 9.87433C13.6428 10.1776 13.9736 10.3292 14.3997 10.3292Z" fill="#312D75"/>
</svg>
