<svg width="39" height="38" viewBox="0 0 39 38" fill="none" xmlns="http://www.w3.org/2000/svg">
<g clip-path="url(#clip0)">
<path d="M9.09922 25.0167C6.94835 25.0167 5.19922 26.721 5.19922 28.8167C5.19922 30.9124 6.94835 32.6167 9.09922 32.6167C11.2501 32.6167 12.9992 30.9124 12.9992 28.8167C12.9992 26.721 11.25 25.0167 9.09922 25.0167ZM9.09922 31.35C7.66528 31.35 6.49924 30.2138 6.49924 28.8167C6.49924 27.4195 7.66536 26.2834 9.09922 26.2834C10.5331 26.2834 11.6992 27.4196 11.6992 28.8167C11.6992 30.2138 10.5331 31.35 9.09922 31.35Z" fill="#C0C4CD" stroke="#C0C4CD" stroke-width="0.3"/>
<path d="M31.2008 25.0167C29.0499 25.0167 27.3008 26.721 27.3008 28.8167C27.3008 30.9124 29.0499 32.6167 31.2008 32.6167C33.3516 32.6167 35.1008 30.9124 35.1008 28.8167C35.1008 26.721 33.3516 25.0167 31.2008 25.0167ZM31.2008 31.35C29.7668 31.35 28.6008 30.2138 28.6008 28.8167C28.6008 27.4195 29.7669 26.2834 31.2008 26.2834C32.6347 26.2834 33.8008 27.4196 33.8008 28.8167C33.8008 30.2138 32.6347 31.35 31.2008 31.35Z" fill="#C0C4CD" stroke="#C0C4CD" stroke-width="0.3"/>
<path d="M38.8958 21.5075L33.0458 12.6408C32.9262 12.4596 32.7202 12.3501 32.4991 12.3501H25.3492C24.9897 12.3501 24.6992 12.6338 24.6992 12.9834V28.8167C24.6992 29.1669 24.9897 29.45 25.3492 29.45H27.9492V28.1833H25.9992V13.6168H32.1443L37.6992 22.0363V28.1835H34.4491V29.4501H38.3491C38.7086 29.4501 38.9991 29.167 38.9991 28.8168V21.8501C38.9992 21.7291 38.9635 21.6094 38.8958 21.5075Z" fill="#C0C4CD" stroke="#C0C4CD" stroke-width="0.3"/>
<path d="M28.6007 20.5832V16.1499H33.8008V14.8832H27.9508C27.5913 14.8832 27.3008 15.167 27.3008 15.5165V21.2165C27.3008 21.5668 27.5913 21.8499 27.9508 21.8499H37.7008V20.5832H28.6007V20.5832Z" fill="#C0C4CD" stroke="#C0C4CD" stroke-width="0.3"/>
<path d="M25.35 7.91663H0.649975C0.291205 7.91663 0 8.20037 0 8.54994V28.8166C0 29.1669 0.291205 29.4499 0.649975 29.4499H5.85V28.1833H1.30003V9.18325H24.7V28.1833H12.35V29.4499H25.35C25.7095 29.4499 26 29.1669 26 28.8166V8.54994C26 8.20037 25.7095 7.91663 25.35 7.91663Z" fill="#C0C4CD" stroke="#C0C4CD" stroke-width="0.3"/>
<path d="M4.54844 25.6499H0.648438V26.9166H4.54844V25.6499Z" fill="#C0C4CD" stroke="#C0C4CD" stroke-width="0.3"/>
<path d="M24.6985 25.6499H13.6484V26.9166H24.6985V25.6499Z" fill="#C0C4CD" stroke="#C0C4CD" stroke-width="0.3"/>
<path d="M38.35 25.6499H35.75V26.9166H38.35V25.6499Z" fill="#C0C4CD" stroke="#C0C4CD" stroke-width="0.3"/>
<path d="M25.3516 10.45H2.60156V11.7167H25.3516V10.45Z" fill="#C0C4CD" stroke="#C0C4CD" stroke-width="0.3"/>
<path d="M9.74924 28.1833H8.44922V29.45H9.74924V28.1833Z" fill="#C0C4CD" stroke="#C0C4CD" stroke-width="0.3"/>
<path d="M31.8508 28.1833H30.5508V29.45H31.8508V28.1833Z" fill="#C0C4CD" stroke="#C0C4CD" stroke-width="0.3"/>
<path d="M11.7016 5.3834H2.60156V6.65009H11.7016V5.3834Z" fill="#C0C4CD" stroke="#C0C4CD" stroke-width="0.3"/>
<path d="M1.30003 5.3834H0V6.65009H1.30003V5.3834Z" fill="#C0C4CD" stroke="#C0C4CD" stroke-width="0.3"/>
</g>
<defs>
<clipPath id="clip0">
<rect width="39" height="38" fill="white"/>
</clipPath>
</defs>
</svg>
