<svg width="26" height="33" viewBox="0 0 26 33" fill="none" xmlns="http://www.w3.org/2000/svg">
<path d="M13 6.11621C9.6916 6.11621 7 8.63959 7 11.7412C7 14.823 9.6478 17.3662 13 17.3662C16.3935 17.3662 19 14.7891 19 11.7412C19 8.63959 16.3084 6.11621 13 6.11621ZM13 15.5037C10.7829 15.5037 8.98667 13.8141 8.98667 11.7412C8.98667 9.67346 10.7944 7.97871 13 7.97871C15.2056 7.97871 17.0067 9.67346 17.0067 11.7412C17.0067 13.7839 15.2523 15.5037 13 15.5037Z" fill="#312D75" stroke="#312D75" stroke-width="0.2"/>
<path d="M13 0.491211C6.3832 0.491211 1 5.53796 1 11.7412C1 13.8371 1.61927 15.8825 2.79127 17.657L12.3169 32.048C12.4994 32.3237 12.8209 32.4912 13.1666 32.4912C13.1693 32.4912 13.1719 32.4912 13.1745 32.4912C13.5233 32.4886 13.8454 32.316 14.0245 32.0355L23.3074 17.505C24.4147 15.768 25 13.7749 25 11.7412C25 5.53796 19.6168 0.491211 13 0.491211ZM21.5911 16.5423L13.1515 29.7528L4.49113 16.6691C3.5156 15.1921 2.98667 13.4881 2.98667 11.7412C2.98667 6.57184 7.486 2.35371 13 2.35371C18.514 2.35371 23.0067 6.57184 23.0067 11.7412C23.0067 13.4363 22.5126 15.0967 21.5911 16.5423Z" fill="#312D75" stroke="#312D75" stroke-width="0.2"/>
</svg>
