<svg width="36" height="37" viewBox="0 0 36 37" fill="none" xmlns="http://www.w3.org/2000/svg">
<path d="M32.5456 17.3942L26.6937 11.5423C26.5496 11.3982 26.3785 11.2839 26.1902 11.2059C26.002 11.1279 25.8002 11.0878 25.5964 11.0878C25.3926 11.0878 25.1908 11.1279 25.0026 11.2059C24.8143 11.2839 24.6432 11.3982 24.4991 11.5423C24.2081 11.8333 24.0447 12.228 24.0447 12.6396C24.0447 13.0511 24.2081 13.4458 24.4991 13.7368L27.7022 16.9397H10.7587C10.3471 16.9397 9.95246 17.1032 9.66145 17.3942C9.37045 17.6852 9.20696 18.0799 9.20696 18.4915C9.20696 18.903 9.37045 19.2977 9.66145 19.5887C9.95246 19.8797 10.3471 20.0432 10.7587 20.0432H27.7022L24.4991 23.2461C24.2081 23.5372 24.0447 23.9318 24.0447 24.3434C24.0447 24.7549 24.2082 25.1496 24.4992 25.4406C24.7902 25.7316 25.1849 25.8951 25.5964 25.8951C26.008 25.8951 26.4027 25.7316 26.6937 25.4406L32.5456 19.5887C32.8366 19.2977 33.0001 18.903 33.0001 18.4914C33.0001 18.0799 32.8366 17.6852 32.5456 17.3942Z" fill="#D91D1E"/>
<path d="M21.1034 27.2843C20.6919 27.2843 20.2972 27.4478 20.0062 27.7388C19.7152 28.0298 19.5517 28.4245 19.5517 28.836V30.3878H6.10345V6.59466H19.5517V8.14638C19.5517 8.55793 19.7152 8.95261 20.0062 9.24362C20.2972 9.53462 20.6919 9.69811 21.1034 9.69811C21.515 9.69811 21.9097 9.53462 22.2007 9.24362C22.4917 8.95261 22.6552 8.55793 22.6552 8.14638V6.07742C22.6552 5.73779 22.5883 5.40149 22.4583 5.08772C22.3283 4.77395 22.1378 4.48884 21.8977 4.24869C21.6575 4.00854 21.3724 3.81804 21.0587 3.68807C20.7449 3.55811 20.4086 3.49121 20.069 3.49121H5.58621C4.9003 3.49121 4.24249 3.76369 3.75748 4.24869C3.27247 4.7337 3 5.39151 3 6.07742V30.905C3 31.5909 3.27247 32.2487 3.75748 32.7337C4.24249 33.2187 4.9003 33.4912 5.58621 33.4912H20.069C20.4086 33.4912 20.7449 33.4243 21.0587 33.2943C21.3724 33.1644 21.6575 32.9739 21.8977 32.7337C22.1378 32.4936 22.3283 32.2085 22.4583 31.8947C22.5883 31.5809 22.6552 31.2446 22.6552 30.905V28.836C22.6552 28.4245 22.4917 28.0298 22.2007 27.7388C21.9097 27.4478 21.515 27.2843 21.1034 27.2843Z" fill="#D91D1E"/>
</svg>
