<svg width="20" height="20" viewBox="0 0 20 20" fill="none" xmlns="http://www.w3.org/2000/svg">
<path d="M17.773 8.95157L14.847 6.0256C14.7749 5.95355 14.6894 5.8964 14.5952 5.8574C14.5011 5.81841 14.4002 5.79834 14.2983 5.79834C14.1964 5.79834 14.0955 5.81841 14.0014 5.8574C13.9073 5.8964 13.8217 5.95355 13.7497 6.0256C13.6042 6.17111 13.5224 6.36845 13.5224 6.57422C13.5224 6.77999 13.6042 6.97734 13.7497 7.12284L15.3512 8.72434H6.87939C6.67361 8.72434 6.47627 8.80608 6.33076 8.95158C6.18526 9.09709 6.10352 9.29443 6.10352 9.50021C6.10352 9.70598 6.18526 9.90333 6.33076 10.0488C6.47627 10.1943 6.67361 10.2761 6.87939 10.2761H15.3512L13.7497 11.8776C13.6042 12.0231 13.5224 12.2204 13.5224 12.4262C13.5224 12.632 13.6042 12.8293 13.7497 12.9748C13.8952 13.1203 14.0926 13.2021 14.2983 13.2021C14.5041 13.2021 14.7015 13.1203 14.847 12.9748L17.773 10.0488C17.9185 9.90331 18.0002 9.70596 18.0002 9.50019C18.0002 9.29442 17.9185 9.09707 17.773 8.95157Z" fill="#312D75"/>
<path d="M12.0518 13.8967C11.846 13.8967 11.6487 13.9784 11.5032 14.1239C11.3577 14.2694 11.276 14.4668 11.276 14.6726V15.4484H4.55174V3.55174H11.276V4.32761C11.276 4.53339 11.3577 4.73073 11.5032 4.87624C11.6487 5.02174 11.846 5.10348 12.0518 5.10348C12.2576 5.10348 12.4549 5.02174 12.6004 4.87624C12.7459 4.73073 12.8277 4.53339 12.8277 4.32761V3.29312C12.8277 3.1233 12.7942 2.95515 12.7293 2.79826C12.6643 2.64137 12.569 2.49882 12.4489 2.37875C12.3289 2.25867 12.1863 2.16342 12.0294 2.09843C11.8725 2.03345 11.7044 2 11.5346 2H4.29312C3.95016 2 3.62125 2.13624 3.37875 2.37875C3.13624 2.62125 3 2.95016 3 3.29312V15.707C3 16.05 3.13624 16.3789 3.37875 16.6214C3.62125 16.8639 3.95016 17.0002 4.29312 17.0002H11.5346C11.7044 17.0002 11.8725 16.9667 12.0294 16.9017C12.1863 16.8367 12.3289 16.7415 12.4489 16.6214C12.569 16.5013 12.6643 16.3588 12.7293 16.2019C12.7942 16.045 12.8277 15.8769 12.8277 15.707V14.6726C12.8277 14.4668 12.7459 14.2694 12.6004 14.1239C12.4549 13.9784 12.2576 13.8967 12.0518 13.8967Z" fill="#312D75"/>
</svg>
