<svg width="24" height="25" viewBox="0 0 24 25" fill="none" xmlns="http://www.w3.org/2000/svg">
<path d="M21.8906 3.52441H2.10938C0.947719 3.52441 0 4.4711 0 5.63379V19.6963C0 20.855 0.9435 21.8057 2.10938 21.8057H21.8906C23.0494 21.8057 24 20.8622 24 19.6963V5.63379C24 4.47504 23.0565 3.52441 21.8906 3.52441ZM21.5993 4.93066L12.0447 14.4853L2.40745 4.93066H21.5993ZM1.40625 19.4051V5.91827L8.1787 12.6326L1.40625 19.4051ZM2.40061 20.3994L9.17733 13.6227L11.5519 15.9769C11.8267 16.2494 12.2703 16.2485 12.5441 15.9747L14.8594 13.6594L21.5994 20.3994H2.40061ZM22.5938 19.4051L15.8537 12.665L22.5938 5.92498V19.4051Z" fill="white"/>
</svg>
