<svg width="30" height="33" viewBox="0 0 30 33" fill="none" xmlns="http://www.w3.org/2000/svg">
<path d="M17.1 6.06454C16.7136 6.06454 16.4 5.76588 16.4 5.39788V3.15788C16.4 2.42321 15.7714 1.82454 15 1.82454C14.2286 1.82454 13.6 2.42321 13.6 3.15788V5.39788C13.6 5.76588 13.2864 6.06454 12.9 6.06454C12.5136 6.06454 12.2 5.76721 12.2 5.39788V3.15788C12.2 1.68721 13.4558 0.491211 15 0.491211C16.5442 0.491211 17.8 1.68721 17.8 3.15788V5.39788C17.8 5.76721 17.4864 6.06454 17.1 6.06454Z" fill="#312D75"/>
<path d="M15 32.4912C12.298 32.4912 10.1 30.3979 10.1 27.8245C10.1 27.4565 10.4136 27.1579 10.8 27.1579C11.1864 27.1579 11.5 27.4565 11.5 27.8245C11.5 29.6619 13.0708 31.1579 15 31.1579C16.9292 31.1579 18.5 29.6619 18.5 27.8245C18.5 27.4565 18.8136 27.1579 19.2 27.1579C19.5864 27.1579 19.9 27.4565 19.9 27.8245C19.9 30.3979 17.702 32.4912 15 32.4912Z" fill="#312D75"/>
<path d="M26.9 28.4912H3.1C1.9422 28.4912 1 27.5939 1 26.4912C1 25.9059 1.2674 25.3525 1.735 24.9712C3.9414 23.1952 5.2 20.6112 5.2 17.8752V13.8245C5.2 8.67788 9.596 4.49121 15 4.49121C20.404 4.49121 24.8 8.67788 24.8 13.8245V17.8752C24.8 20.6125 26.0586 23.1952 28.2538 24.9619C28.7326 25.3525 29 25.9059 29 26.4912C29 27.5939 28.0592 28.4912 26.9 28.4912ZM15 5.82454C10.3674 5.82454 6.6 9.41254 6.6 13.8245V17.8752C6.6 21.0059 5.1608 23.9592 2.6506 25.9805C2.4896 26.1112 2.4 26.2965 2.4 26.4912C2.4 26.8592 2.7136 27.1579 3.1 27.1579H26.9C27.2864 27.1579 27.6 26.8592 27.6 26.4912C27.6 26.2965 27.5104 26.1112 27.355 25.9845C24.8406 23.9592 23.4 21.0045 23.4 17.8752V13.8245C23.4 9.41254 19.6326 5.82454 15 5.82454Z" fill="#312D75"/>
<path d="M17.1 6.06454C16.7136 6.06454 16.4 5.76588 16.4 5.39788V3.15788C16.4 2.42321 15.7714 1.82454 15 1.82454C14.2286 1.82454 13.6 2.42321 13.6 3.15788V5.39788C13.6 5.76588 13.2864 6.06454 12.9 6.06454C12.5136 6.06454 12.2 5.76721 12.2 5.39788V3.15788C12.2 1.68721 13.4558 0.491211 15 0.491211C16.5442 0.491211 17.8 1.68721 17.8 3.15788V5.39788C17.8 5.76721 17.4864 6.06454 17.1 6.06454Z" stroke="#312D75" stroke-width="0.5"/>
<path d="M15 32.4912C12.298 32.4912 10.1 30.3979 10.1 27.8245C10.1 27.4565 10.4136 27.1579 10.8 27.1579C11.1864 27.1579 11.5 27.4565 11.5 27.8245C11.5 29.6619 13.0708 31.1579 15 31.1579C16.9292 31.1579 18.5 29.6619 18.5 27.8245C18.5 27.4565 18.8136 27.1579 19.2 27.1579C19.5864 27.1579 19.9 27.4565 19.9 27.8245C19.9 30.3979 17.702 32.4912 15 32.4912Z" stroke="#312D75" stroke-width="0.5"/>
<path d="M26.9 28.4912H3.1C1.9422 28.4912 1 27.5939 1 26.4912C1 25.9059 1.2674 25.3525 1.735 24.9712C3.9414 23.1952 5.2 20.6112 5.2 17.8752V13.8245C5.2 8.67788 9.596 4.49121 15 4.49121C20.404 4.49121 24.8 8.67788 24.8 13.8245V17.8752C24.8 20.6125 26.0586 23.1952 28.2538 24.9619C28.7326 25.3525 29 25.9059 29 26.4912C29 27.5939 28.0592 28.4912 26.9 28.4912ZM15 5.82454C10.3674 5.82454 6.6 9.41254 6.6 13.8245V17.8752C6.6 21.0059 5.1608 23.9592 2.6506 25.9805C2.4896 26.1112 2.4 26.2965 2.4 26.4912C2.4 26.8592 2.7136 27.1579 3.1 27.1579H26.9C27.2864 27.1579 27.6 26.8592 27.6 26.4912C27.6 26.2965 27.5104 26.1112 27.355 25.9845C24.8406 23.9592 23.4 21.0045 23.4 17.8752V13.8245C23.4 9.41254 19.6326 5.82454 15 5.82454Z" stroke="#312D75" stroke-width="0.5"/>
</svg>
