<svg width="50" height="50" viewBox="0 0 50 50" fill="none" xmlns="http://www.w3.org/2000/svg">
<path fill-rule="evenodd" clip-rule="evenodd" d="M14.001 27.7339V27.4602C14.0412 26.6503 14.3007 25.8656 14.7529 25.187C15.5056 24.3718 16.0209 23.3729 16.2446 22.295C16.2446 21.4619 16.2446 20.6169 16.3174 19.7838C16.6934 15.773 20.6591 13 24.5763 13H24.6733C28.5906 13 32.5563 15.773 32.9444 19.7838C33.0171 20.6169 32.9444 21.4619 33.005 22.295C33.2318 23.3754 33.7465 24.3774 34.4967 25.1989C34.9523 25.8715 35.2123 26.6533 35.2486 27.4602V27.722C35.2757 28.8101 34.901 29.871 34.1935 30.7092C33.2587 31.6893 31.9901 32.2991 30.628 32.423C26.6337 32.8515 22.6038 32.8515 18.6095 32.423C17.2489 32.2937 15.9822 31.6849 15.044 30.7092C14.3475 29.8704 13.9778 28.8157 14.001 27.7339Z" stroke="#312D75" stroke-width="1.5" stroke-linecap="round" stroke-linejoin="round"/>
<path opacity="0.4" d="M21.5684 36.5647C22.1925 37.348 23.1089 37.855 24.115 37.9734C25.121 38.0918 26.1337 37.8118 26.9288 37.1955C27.1733 37.0132 27.3934 36.8012 27.5837 36.5647" stroke="#312D75" stroke-width="1.5" stroke-linecap="round" stroke-linejoin="round"/>
</svg>
