<svg width="23" height="27" viewBox="0 0 23 27" fill="none" xmlns="http://www.w3.org/2000/svg">
<path fill-rule="evenodd" clip-rule="evenodd" d="M1.00103 15.7339V15.4602C1.04119 14.6503 1.30075 13.8656 1.75294 13.187C2.50563 12.3718 3.02088 11.3729 3.24464 10.295C3.24464 9.46188 3.24464 8.61688 3.31741 7.78378C3.69336 3.77302 7.6591 1 11.5763 1H11.6733C15.5906 1 19.5563 3.77302 19.9444 7.78378C20.0171 8.61688 19.9444 9.46188 20.005 10.295C20.2318 11.3754 20.7465 12.3774 21.4967 13.1989C21.9523 13.8715 22.2123 14.6533 22.2486 15.4602V15.722C22.2757 16.8101 21.901 17.871 21.1935 18.7092C20.2587 19.6893 18.9901 20.2991 17.628 20.423C13.6337 20.8515 9.60379 20.8515 5.60953 20.423C4.24893 20.2937 2.9822 19.6849 2.04401 18.7092C1.3475 17.8704 0.977801 16.8157 1.00103 15.7339Z" stroke="#312D75" stroke-width="1.5" stroke-linecap="round" stroke-linejoin="round"/>
<path opacity="0.4" d="M8.56836 24.5647C9.19245 25.348 10.1089 25.855 11.115 25.9734C12.121 26.0918 13.1337 25.8118 13.9288 25.1955C14.1733 25.0132 14.3934 24.8012 14.5837 24.5647" stroke="#312D75" stroke-width="1.5" stroke-linecap="round" stroke-linejoin="round"/>
</svg>
