<svg width="49" height="48" viewBox="0 0 49 48" fill="none" xmlns="http://www.w3.org/2000/svg">
<path d="M29.867 9C29.5069 9 29.2148 9.27988 29.2148 9.625V12.5C29.2148 12.8451 29.5069 13.125 29.867 13.125C30.2271 13.125 30.5192 12.8451 30.5192 12.5V9.625C30.5192 9.27988 30.2271 9 29.867 9Z" fill="#312D75"/>
<path d="M14.867 28.5C14.507 28.5 14.2148 28.78 14.2148 29.125C14.2148 29.47 14.507 29.75 14.867 29.75C15.227 29.75 15.5192 29.47 15.5192 29.125C15.5192 28.78 15.227 28.5 14.867 28.5Z" fill="#312D75"/>
<path d="M39 27.25C39 25.8715 37.8297 24.75 36.3913 24.75H31.5227C32.2764 22.8998 32.5815 20.7221 32.5227 18.7835C32.5115 18.4136 32.4967 18.1996 32.4766 18.0649C32.4429 16.7145 31.2858 15.625 29.8696 15.625C28.4311 15.625 27.2609 16.7465 27.2609 18.125V18.75C27.2609 22.7029 21.9643 24.9238 17.9671 25.8762C17.6649 25.2141 16.975 24.75 16.1739 24.75H9.65217C9.29204 24.75 9 25.0299 9 25.375V40.375C9 40.7201 9.29204 41 9.65217 41H16.1739C16.9697 41 17.6556 40.5421 17.9609 39.8869C18.2919 39.9683 18.5992 40.0452 18.8828 40.1162C21.1598 40.6861 22.4142 41 25.4648 41H32.4783C33.9167 41 35.087 39.8785 35.087 38.5C35.087 37.986 34.9241 37.5079 34.6454 37.1101C35.6529 36.7724 36.3913 35.8499 36.3913 34.75C36.3913 34.2379 36.2324 33.7582 35.9546 33.3586C36.9577 33.0204 37.6957 32.1 37.6957 31C37.6957 30.486 37.5328 30.0079 37.2541 29.6101C38.2616 29.2724 39 28.3499 39 27.25ZM16.8261 39.125C16.8261 39.4696 16.5335 39.75 16.1739 39.75H10.3043V26H16.1739C16.5335 26 16.8261 26.2804 16.8261 26.625V39.125ZM36.3913 28.5C34.9925 28.5 34.659 28.5 33.1304 28.5C32.7703 28.5 32.4783 28.7799 32.4783 29.125C32.4783 29.4701 32.7703 29.75 33.1304 29.75H35.087C35.8062 29.75 36.3913 30.3108 36.3913 31C36.3913 31.6904 35.8073 32.25 35.087 32.25H31.8261C31.466 32.25 31.1739 32.5299 31.1739 32.875C31.1739 33.2201 31.466 33.5 31.8261 33.5H33.7826C34.4933 33.5 35.087 34.0441 35.087 34.75C35.087 35.4404 34.503 36 33.7826 36C32.3838 36 32.0503 36 30.5217 36C30.1616 36 29.8696 36.2799 29.8696 36.625C29.8696 36.9701 30.1616 37.25 30.5217 37.25H32.4783C33.1975 37.25 33.7826 37.8108 33.7826 38.5C33.7826 39.1892 33.1975 39.75 32.4783 39.75H25.4648C22.5817 39.75 21.4557 39.4682 19.2124 38.9067C18.8838 38.8245 18.5233 38.7343 18.1304 38.6383V27.1266C22.8501 26.0492 28.5652 23.4194 28.5652 18.75V18.125C28.5652 17.4358 29.1503 16.875 29.8696 16.875C30.5875 16.875 31.1725 17.4349 31.1739 18.1231V18.125C31.1739 18.3966 31.5277 21.7302 30.1092 24.75H27.913C27.5529 24.75 27.2609 25.0299 27.2609 25.375C27.2609 25.7201 27.5529 26 27.913 26C28.3685 26 35.648 26 36.3913 26C37.1105 26 37.6957 26.5608 37.6957 27.25C37.6957 27.9404 37.1117 28.5 36.3913 28.5Z" fill="#312D75" stroke="#312D75" stroke-width="0.4"/>
<path d="M14.867 31C14.5069 31 14.2148 31.2799 14.2148 31.625V36.625C14.2148 36.9701 14.5069 37.25 14.867 37.25C15.2271 37.25 15.5192 36.9701 15.5192 36.625V31.625C15.5192 31.2799 15.2271 31 14.867 31Z" fill="#312D75"/>
<path d="M24.6515 16.875H22.0428C21.6827 16.875 21.3906 17.1549 21.3906 17.5C21.3906 17.8451 21.6827 18.125 22.0428 18.125H24.6515C25.0116 18.125 25.3037 17.8451 25.3037 17.5C25.3037 17.1549 25.0116 16.875 24.6515 16.875Z" fill="#312D75"/>
<path d="M37.6945 16.875H35.0858C34.7256 16.875 34.4336 17.1549 34.4336 17.5C34.4336 17.8451 34.7256 18.125 35.0858 18.125H37.6945C38.0546 18.125 38.3466 17.8451 38.3466 17.5C38.3466 17.1549 38.0546 16.875 37.6945 16.875Z" fill="#312D75"/>
<path d="M35.86 11.7548C35.6053 11.5108 35.1924 11.5108 34.9376 11.7548L33.0933 13.5222C32.8387 13.7663 32.8387 14.162 33.0933 14.4062C33.3482 14.6502 33.7609 14.6502 34.0157 14.4062L35.86 12.6387C36.1147 12.3947 36.1147 11.9989 35.86 11.7548Z" fill="#312D75"/>
<path d="M26.6412 13.5225L24.797 11.755C24.5422 11.511 24.1294 11.511 23.8746 11.755C23.6199 11.9991 23.6199 12.3948 23.8746 12.639L25.7189 14.4064C25.9737 14.6505 26.3865 14.6504 26.6412 14.4064C26.8959 14.1623 26.8959 13.7666 26.6412 13.5225Z" fill="#312D75"/>
</svg>
