<svg width="440" height="366" viewBox="0 0 440 366" fill="none" xmlns="http://www.w3.org/2000/svg">
<g clip-path="url(#clip0)">
<path d="M64.4336 331.45C150.37 376.339 289.638 376.339 375.555 331.45C461.472 286.56 461.492 213.807 375.555 168.918C289.618 124.029 150.35 124.039 64.4336 168.918C-21.4829 213.797 -21.4728 286.571 64.4336 331.45Z" fill="#DEEDFA"/>
<path d="M38.9442 259.889H42.5636C44.2226 254.35 45.31 248.655 45.809 242.894C46.5976 232.228 41.4313 215.9 31.9681 210.43C22.505 204.961 17.3791 211.724 20.5537 217.507C23.7283 223.29 34.435 239.74 34.5766 253.894L38.9442 259.889Z" fill="#E84C4F"/>
<path d="M38.0762 259.889H39.0872C40.075 252.904 40.075 245.815 39.0872 238.83C37.4493 224.989 32.8997 218.559 28.6737 214.09C28.5812 213.992 28.4536 213.935 28.319 213.931C28.1843 213.928 28.0537 213.977 27.9559 214.07C27.858 214.162 27.8009 214.29 27.7971 214.425C27.7933 214.559 27.8431 214.69 27.9356 214.788C32.0505 219.125 36.4788 225.393 38.0458 238.941C39.0474 245.887 39.0576 252.94 38.0762 259.889Z" fill="white"/>
<path d="M39.2392 259.889C37.3789 251.114 28.9268 240.68 20.9498 238.88C11.699 236.858 7.19995 241.742 8.52439 245.958C9.84883 250.174 17.1585 252.135 24.2559 255.441C26.6457 256.547 28.8303 258.052 30.7163 259.889H39.2392Z" fill="#E84C4F"/>
<path d="M35.8734 259.89H36.9552C33.0426 250.052 24.1456 243.036 16.8663 242.389C16.8004 242.382 16.7337 242.388 16.6703 242.408C16.6069 242.427 16.548 242.459 16.4971 242.501C16.4462 242.543 16.4043 242.596 16.374 242.655C16.3436 242.713 16.3253 242.778 16.3203 242.844C16.3119 242.91 16.3172 242.977 16.3358 243.041C16.3545 243.105 16.3862 243.165 16.4289 243.216C16.4716 243.267 16.5244 243.309 16.584 243.339C16.6436 243.369 16.7087 243.386 16.7753 243.39C23.6502 244.007 32.0518 250.598 35.8734 259.89Z" fill="white"/>
<path d="M365.605 167.391L373.178 171.365L373.815 166.623C370.064 156.048 373.147 144.057 377.202 139.062C381.256 134.068 380.477 130.398 379.011 128.76C377.545 127.122 371.985 125.879 366.485 132.309C360.985 138.739 359.721 146.544 360.641 154.42C361.227 159.344 363.816 164.399 365.605 167.391Z" fill="#E84C4F"/>
<path opacity="0.2" d="M365.605 167.391L373.178 171.365L373.815 166.623C370.064 156.048 373.147 144.057 377.202 139.062C381.256 134.068 380.477 130.398 379.011 128.76C377.545 127.122 371.985 125.879 366.485 132.309C360.985 138.739 359.721 146.544 360.641 154.42C361.227 159.344 363.816 164.399 365.605 167.391Z" fill="black"/>
<path d="M368.729 169.029L370.226 169.818C370.211 169.789 370.194 169.762 370.175 169.737C368.032 167.189 365.262 154.713 366.424 147.403C367.86 138.375 372.49 132.481 376.454 129.984C376.502 129.954 376.544 129.914 376.577 129.868C376.61 129.821 376.634 129.769 376.646 129.713C376.658 129.658 376.659 129.6 376.649 129.544C376.638 129.488 376.617 129.435 376.585 129.387C376.521 129.29 376.422 129.223 376.308 129.198C376.195 129.174 376.077 129.194 375.978 129.256C371.934 131.854 367.041 137.95 365.555 147.272C364.483 154.076 366.627 164.854 368.729 169.029Z" fill="white"/>
<path d="M373.331 149.345C375.545 154.774 375.535 157.433 371.926 157.989C368.67 158.474 364.717 162.427 368.387 168.847L389.861 180.11C389.915 178.91 390.212 177.733 390.733 176.65C391.254 175.568 391.989 174.602 392.894 173.811C396.423 170.283 399.678 167.624 399.173 163.701C398.667 159.778 395.26 155.997 394.694 152.58C394.128 149.163 395.867 147.211 399.577 143.379C403.287 139.548 406.654 133.603 401.7 130.893C396.746 128.184 391.074 132.824 388.709 135.948C386.343 139.073 384.179 140.448 379.518 140.185C374.858 139.922 371.117 143.915 373.331 149.345Z" fill="#E84C4F"/>
<path d="M379.409 174.63C379.307 157.968 391.248 138.456 397.89 134.513C397.988 134.45 398.058 134.352 398.087 134.24C398.115 134.127 398.099 134.007 398.042 133.906C397.981 133.809 397.885 133.739 397.774 133.71C397.663 133.682 397.545 133.698 397.445 133.754C390.712 137.799 378.67 157.321 378.539 174.195L379.409 174.63Z" fill="white"/>
<path d="M382.6 157.311C382.509 157.332 382.413 157.322 382.329 157.281C382.244 157.241 382.176 157.173 382.135 157.089C380.206 153.491 378.583 149.737 377.282 145.867C377.265 145.812 377.258 145.755 377.263 145.698C377.268 145.641 377.284 145.586 377.311 145.535C377.337 145.484 377.373 145.439 377.417 145.402C377.46 145.366 377.511 145.338 377.565 145.321C377.62 145.303 377.677 145.297 377.734 145.302C377.791 145.307 377.846 145.323 377.897 145.349C377.947 145.375 377.992 145.411 378.029 145.455C378.066 145.499 378.094 145.549 378.111 145.604C379.4 149.42 381.003 153.123 382.903 156.674C382.957 156.778 382.968 156.898 382.934 157.01C382.9 157.121 382.824 157.215 382.721 157.271L382.6 157.311Z" fill="white"/>
<path d="M379.73 167.523C379.648 167.538 379.562 167.53 379.484 167.5C379.405 167.469 379.337 167.418 379.286 167.351C379.219 167.254 379.193 167.135 379.214 167.02C379.235 166.904 379.301 166.801 379.397 166.734C383.75 163.686 389.033 162.256 394.33 162.69C394.445 162.705 394.55 162.765 394.621 162.857C394.692 162.949 394.723 163.065 394.709 163.18C394.694 163.296 394.634 163.4 394.542 163.472C394.45 163.543 394.334 163.574 394.218 163.56C389.147 163.174 384.095 164.533 379.902 167.412C379.853 167.46 379.795 167.498 379.73 167.523Z" fill="white"/>
<path d="M31.3513 255.593L141.694 319.287C143.051 319.975 144.551 320.334 146.072 320.334C147.593 320.334 149.093 319.975 150.45 319.287L392.215 179.766C394.631 178.371 394.631 176.106 392.215 174.711L281.872 111.017C280.517 110.324 279.017 109.962 277.494 109.962C275.972 109.962 274.472 110.324 273.117 111.017L31.3513 250.538C28.935 251.933 28.935 254.198 31.3513 255.593Z" fill="#253B8E"/>
<path d="M90.9938 285.165C92.875 286.114 94.9528 286.609 97.0599 286.609C99.167 286.609 101.245 286.114 103.126 285.165C106.493 283.224 106.493 280.11 103.126 278.138C101.246 277.185 99.1679 276.687 97.0599 276.688C94.9519 276.687 92.8736 277.185 90.9938 278.138C87.6271 280.11 87.6271 283.244 90.9938 285.165Z" fill="#142050"/>
<path d="M143.767 319.287L33.4246 255.593C31.261 254.339 31.0386 252.398 32.7472 251.003C31.668 251.857 30.7807 252.928 30.1432 254.147C29.5056 255.367 29.1321 256.707 29.0469 258.08V262.195C29.1299 263.714 29.5694 265.192 30.33 266.509C31.0906 267.827 32.1507 268.946 33.4246 269.778L143.767 333.472C145.117 334.177 146.624 334.525 148.145 334.483V320.339C146.62 320.368 145.113 320.006 143.767 319.287Z" fill="#142050"/>
<path d="M392.207 193.941C393.484 193.112 394.547 191.993 395.31 190.675C396.072 189.357 396.513 187.878 396.595 186.358V182.243C396.513 180.868 396.14 179.526 395.5 178.306C394.861 177.086 393.969 176.016 392.885 175.166C394.603 176.561 394.381 178.502 392.217 179.746L150.452 319.287C149.102 319.989 147.596 320.337 146.074 320.298V334.523C147.596 334.562 149.102 334.214 150.452 333.512L392.207 193.941Z" fill="#142050"/>
<path d="M159.871 306.093L54.2599 245.088C52.804 244.249 52.804 242.884 54.2599 242.055L258.405 124.16C259.22 123.746 260.12 123.531 261.034 123.531C261.947 123.531 262.848 123.746 263.662 124.16L369.314 185.155C370.76 185.994 370.76 187.349 369.314 188.188L165.088 306.093C164.279 306.501 163.385 306.713 162.48 306.713C161.574 306.713 160.68 306.501 159.871 306.093Z" fill="white"/>
<path d="M117.32 272.032L129.644 264.915L125.539 262.549L113.215 269.656L117.32 272.032Z" fill="#253B8E"/>
<path d="M265.171 186.671L277.496 179.554L273.381 177.188L261.066 184.306L265.171 186.671Z" fill="#253B8E"/>
<path d="M289.808 172.446L302.132 165.329L298.027 162.963L285.703 170.07L289.808 172.446Z" fill="#253B8E"/>
<path d="M329.359 147.525C329.837 147.764 330.365 147.889 330.901 147.889C331.436 147.889 331.964 147.764 332.442 147.525C332.628 147.461 332.789 147.341 332.903 147.182C333.017 147.022 333.079 146.831 333.079 146.635C333.079 146.439 333.017 146.248 332.903 146.088C332.789 145.929 332.628 145.809 332.442 145.745C331.965 145.501 331.437 145.374 330.901 145.374C330.365 145.374 329.836 145.501 329.359 145.745C329.173 145.809 329.012 145.929 328.898 146.088C328.784 146.248 328.723 146.439 328.723 146.635C328.723 146.831 328.784 147.022 328.898 147.182C329.012 147.341 329.173 147.461 329.359 147.525Z" fill="#142050"/>
<path d="M334.286 161.487C335.24 161.971 336.294 162.222 337.364 162.222C338.434 162.222 339.488 161.971 340.443 161.487C342.141 160.476 342.141 158.909 340.443 157.928C339.488 157.445 338.434 157.193 337.364 157.193C336.294 157.193 335.24 157.445 334.286 157.928C332.587 158.909 332.587 160.507 334.286 161.487Z" fill="#142050"/>
<path d="M329.937 155.3C331.069 154.643 331.009 153.551 329.806 152.853L309.585 141.156C308.934 140.807 308.21 140.617 307.472 140.603C306.734 140.589 306.002 140.751 305.339 141.075C304.207 141.732 304.267 142.824 305.47 143.521L325.751 155.219C326.395 155.557 327.108 155.74 327.835 155.754C328.561 155.769 329.281 155.613 329.937 155.3Z" fill="#142050"/>
<path d="M134.668 263.721C144.889 269.605 168.85 265.329 188.191 254.157L241.32 223.493C260.661 212.321 268.041 198.511 257.8 192.636C247.558 186.762 223.577 191.059 204.216 202.221L151.188 232.845C131.857 244.006 124.456 257.868 134.668 263.721Z" fill="#DEEDFA"/>
<path d="M289.356 6.64924H289.407L298.152 1.59414H298.223C303.733 -1.19628 311.093 -0.427898 319.019 4.72831C334.953 14.9801 347.116 38.6379 346.196 57.5541C345.731 66.987 342.152 73.4575 336.621 76.3086H336.571L327.815 81.3637H327.755C322.245 84.1642 314.874 83.3857 306.938 78.2396C291.014 67.9778 278.852 44.33 279.772 25.4138C280.257 15.9709 283.886 9.50032 289.356 6.64924Z" fill="#142050"/>
<path d="M328.262 81.1007L336.603 76.2478H336.663C342.143 73.3866 345.763 66.916 346.228 57.4933C346.632 49.0614 344.438 39.6893 340.475 30.9844L331.719 36.0395C335.693 44.7444 337.887 54.1165 337.472 62.5585C337.037 71.7588 333.559 78.1586 328.262 81.1007Z" fill="#142050"/>
<path d="M306.977 78.2294C291.053 67.9675 278.891 44.3197 279.811 25.4035C280.731 6.48734 294.41 -0.539253 310.303 9.7125C326.196 19.9642 338.399 43.6221 337.479 62.5383C336.559 81.4545 322.9 88.4811 306.977 78.2294Z" fill="#253B8E"/>
<path d="M320.325 76.8949C329.718 77.3499 331.244 66.7847 331.447 62.2351C332.255 45.5533 321.074 23.8164 307.031 14.7677C304.038 12.6717 300.556 11.3833 296.92 11.0269C287.538 10.572 286.011 21.1371 285.799 25.6867C284.99 42.3686 296.162 64.1055 310.215 73.2047C313.207 75.3007 316.69 76.5891 320.325 76.9455V76.8949Z" fill="#FAFAFA"/>
<path d="M306.808 47.1001C306.919 47.1005 307.029 47.0799 307.132 47.0395C307.343 46.9709 307.526 46.8348 307.652 46.6521C307.778 46.4693 307.84 46.2502 307.829 46.0285V21.9358C307.829 21.6677 307.723 21.4105 307.533 21.2209C307.344 21.0313 307.087 20.9248 306.818 20.9248C306.55 20.9248 306.293 21.0313 306.104 21.2209C305.914 21.4105 305.807 21.6677 305.807 21.9358V43.0965L294.555 28.6389C294.389 28.4244 294.144 28.2847 293.875 28.2506C293.605 28.2164 293.334 28.2907 293.119 28.4569C292.905 28.6232 292.765 28.8678 292.731 29.137C292.697 29.4063 292.771 29.6781 292.937 29.8926L306.03 46.7058C306.122 46.8255 306.24 46.9231 306.374 46.9913C306.509 47.0595 306.657 47.0967 306.808 47.1001Z" fill="#253B8E"/>
<path d="M312.609 64.9243C312.656 64.9335 312.704 64.9335 312.75 64.9243C312.858 64.8914 312.948 64.8183 313.003 64.7204C313.057 64.6224 313.072 64.5071 313.044 64.3985L307.372 45.3004C307.34 45.1918 307.265 45.1004 307.166 45.0464C307.066 44.9923 306.949 44.98 306.841 45.0122C306.732 45.0444 306.641 45.1184 306.587 45.2179C306.533 45.3175 306.521 45.4344 306.553 45.543L312.214 64.6412C312.243 64.723 312.297 64.794 312.367 64.8446C312.438 64.8952 312.522 64.923 312.609 64.9243Z" fill="#E84C4F"/>
<path d="M307.128 41.2463C305.248 40.0432 303.64 40.8723 303.539 43.0965C303.545 44.3097 303.838 45.5043 304.393 46.583C304.948 47.6617 305.75 48.5941 306.734 49.3042C308.604 50.5174 310.212 49.6884 310.323 47.4641C310.314 46.25 310.021 45.0548 309.466 43.9748C308.911 42.8948 308.11 41.9603 307.128 41.2463Z" fill="#E84C4F"/>
<path d="M141.968 257.807L154.282 250.69L150.177 248.324L137.863 255.431L141.968 257.807Z" fill="#E84C4F"/>
<path d="M166.609 243.582L178.933 236.464L174.818 234.099L162.504 241.206L166.609 243.582Z" fill="#E84C4F"/>
<path d="M161.544 240.68C161.544 246.625 157.379 253.823 152.233 256.856C149.493 258.444 147.026 258.494 145.328 257.301C144.643 256.763 144.08 256.085 143.678 255.313C143.275 254.541 143.041 253.692 142.992 252.822C143.338 252.661 143.675 252.482 144.003 252.286C149.149 249.324 153.315 242.095 153.315 236.11C153.32 235.667 153.293 235.225 153.234 234.786C154.005 234.378 154.853 234.135 155.723 234.072C156.593 234.009 157.467 234.128 158.289 234.422C160.311 235.271 161.544 237.465 161.544 240.68Z" fill="#142050"/>
<path d="M162.383 228.467L162.211 228.366C159.623 226.991 156.145 227.244 152.232 229.488C144.296 234.068 137.855 245.21 137.855 254.38C137.855 258.99 139.483 262.215 142.112 263.711C144.741 265.208 148.289 264.955 152.222 262.7C160.159 258.12 166.589 246.969 166.589 237.799C166.599 233.189 165.001 229.963 162.383 228.467ZM152.273 256.836C149.523 258.424 147.056 258.474 145.357 257.271C143.861 256.26 142.951 254.238 142.951 251.458C142.951 245.523 147.127 238.314 152.273 235.281C154.618 233.927 156.751 233.694 158.339 234.392C160.3 235.231 161.534 237.425 161.534 240.66C161.544 246.645 157.378 253.874 152.232 256.857L152.273 256.836Z" fill="#142050"/>
<path d="M158.814 234.664L158.702 234.604C157.024 233.704 154.749 233.876 152.232 235.322C147.086 238.294 142.91 245.523 142.91 251.498C142.91 254.531 143.921 256.553 145.67 257.564C147.419 258.575 149.714 258.373 152.232 256.897C157.378 253.924 161.543 246.696 161.543 240.72C161.543 237.728 160.502 235.625 158.814 234.664ZM152.232 254.733C150.028 256.007 148.046 256.048 146.671 255.077C145.478 254.238 144.74 252.63 144.74 250.406C144.882 247.807 145.634 245.279 146.936 243.025C148.237 240.771 150.052 238.856 152.232 237.435C152.94 236.94 153.754 236.618 154.609 236.493C155.463 236.368 156.336 236.445 157.155 236.717C158.733 237.394 159.723 239.153 159.723 241.772C159.583 244.369 158.831 246.897 157.529 249.149C156.227 251.401 154.412 253.315 152.232 254.733Z" fill="#E84C4F"/>
<path d="M191.245 229.347L203.57 222.239L199.465 219.863L187.141 226.981L191.245 229.347Z" fill="#E84C4F"/>
<path d="M215.896 215.122L228.21 208.014L224.106 205.638L211.781 212.756L215.896 215.122Z" fill="#E84C4F"/>
<path d="M240.533 200.896L252.847 193.789L248.742 191.413L236.418 198.531L240.533 200.896Z" fill="#E84C4F"/>
<path d="M179.218 134.745C179.346 134.573 179.527 134.447 179.732 134.384C179.938 134.322 180.158 134.326 180.361 134.397C180.564 134.468 180.739 134.602 180.86 134.779C180.982 134.956 181.044 135.168 181.037 135.382C181.116 135.958 181.058 136.544 180.866 137.092C180.675 137.641 180.356 138.136 179.935 138.537C179.127 139.234 178.308 138.951 178.116 137.9C178.037 137.324 178.096 136.739 178.288 136.19C178.479 135.642 178.798 135.147 179.218 134.745Z" fill="#E84C4F"/>
<path d="M188.698 139.214L180.458 134.452L178.648 138.81L186.919 143.582L188.698 139.214Z" fill="#E84C4F"/>
<path d="M187.435 139.487C188.244 138.8 189.053 139.083 189.255 140.134C189.33 140.709 189.268 141.293 189.074 141.839C188.881 142.385 188.562 142.878 188.143 143.278C187.334 143.976 186.515 143.693 186.323 142.641C186.249 142.065 186.312 141.48 186.505 140.932C186.698 140.384 187.016 139.89 187.435 139.487Z" fill="#E84C4F"/>
<path d="M250.765 179.362C250.765 179.564 250.765 179.746 250.765 179.948C250.765 180.353 250.765 180.767 250.765 181.182C249.128 180.484 246.994 180.717 244.649 182.071C239.503 185.044 235.327 192.273 235.327 198.248C235.327 201.018 236.237 203.02 237.733 204.061C237.313 204.36 236.878 204.637 236.429 204.89L235.954 205.133L234.528 210.501L226.278 205.901C223.67 204.395 222.062 201.18 222.062 196.59C222.062 187.42 228.493 176.278 236.429 171.688C240.352 169.424 243.901 169.191 246.539 170.677L254.628 175.207L254.799 175.308L250.765 179.362Z" fill="#142050"/>
<path d="M254.789 175.217L254.617 175.115C252.029 173.74 248.551 173.993 244.638 176.238C236.702 180.818 230.262 191.959 230.262 201.129C230.262 205.739 231.889 208.964 234.518 210.461C237.147 211.957 240.695 211.704 244.628 209.45C252.565 204.87 258.995 193.718 258.995 184.548C259.025 179.938 257.398 176.713 254.789 175.217ZM244.679 203.586C241.929 205.173 239.462 205.224 237.763 204.021C236.267 203.01 235.357 200.988 235.357 198.207C235.357 192.273 239.533 185.064 244.679 182.031C247.024 180.676 249.158 180.444 250.796 181.141C252.757 181.98 253.99 184.174 253.99 187.41C253.97 193.395 249.785 200.624 244.638 203.586H244.679Z" fill="#253B8E"/>
<path d="M253.97 187.45C253.97 193.395 249.805 200.593 244.659 203.626C241.919 205.214 239.452 205.264 237.753 204.071C237.069 203.533 236.506 202.855 236.104 202.083C235.701 201.311 235.467 200.462 235.418 199.592C235.764 199.431 236.101 199.252 236.429 199.056C241.575 196.094 245.74 188.865 245.74 182.88C245.745 182.437 245.718 181.995 245.66 181.556C246.431 181.148 247.279 180.905 248.149 180.842C249.019 180.779 249.893 180.898 250.715 181.192C252.717 182.041 253.97 184.215 253.97 187.45Z" fill="#142050"/>
<path d="M251.22 181.414L251.109 181.343C249.43 180.454 247.145 180.615 244.638 182.071C239.492 185.044 235.316 192.262 235.316 198.248C235.316 201.281 236.327 203.303 238.077 204.314C239.826 205.325 242.121 205.112 244.638 203.636C249.784 200.674 253.95 193.445 253.95 187.46C253.97 184.478 252.959 182.385 251.22 181.414ZM244.638 201.473C242.424 202.757 240.442 202.797 239.077 201.827C237.874 200.988 237.146 199.38 237.146 197.156C237.288 194.557 238.04 192.028 239.342 189.775C240.643 187.521 242.458 185.606 244.638 184.184C246.519 183.092 248.237 182.9 249.552 183.467C251.129 184.144 252.12 185.903 252.12 188.522C251.979 191.117 251.228 193.642 249.928 195.892C248.628 198.143 246.816 200.055 244.638 201.473Z" fill="#E84C4F"/>
<path d="M236.42 190.473L259.674 177.047C262.373 175.479 253.608 166.33 247.087 165.713C243.496 165.279 239.855 165.624 236.41 166.724C236.41 166.724 241.374 173.083 240.525 176.693C239.676 180.302 236.42 190.473 236.42 190.473Z" fill="#E84C4F"/>
<path d="M203.571 152.529C203.571 152.529 237.279 169.535 238.734 170.556C240.19 171.577 238.734 183.436 236.419 190.473C234.104 197.51 230.545 208.328 229.12 211.361C227.694 214.394 225.834 215.526 222.416 217.497L198.152 231.52L165.304 235.524L152.262 228.447L155.659 207.104C155.659 207.104 190.569 188.532 195.351 185.772C200.134 183.012 214.278 170.06 203.571 152.529Z" fill="#E84C4F"/>
<path opacity="0.2" d="M203.571 152.529C203.571 152.529 237.279 169.535 238.734 170.556C240.19 171.577 238.734 183.436 236.419 190.473C234.104 197.51 230.545 208.328 229.12 211.361C227.694 214.394 225.834 215.526 222.416 217.497L198.152 231.52L165.304 235.524L152.262 228.447L155.659 207.104C155.659 207.104 190.569 188.532 195.351 185.772C200.134 183.012 214.278 170.06 203.571 152.529Z" fill="black"/>
<path d="M239.384 186.419C242.417 178.27 244.682 171.516 244.298 166.956C243.832 161.547 241.81 157.129 232.893 154.905C223.976 152.681 211.51 152.721 211.51 152.721L207.719 154.915C207.719 154.915 233.358 169.777 236.27 171.395C238.049 172.406 239.95 176.864 236.462 190.483L237.059 190.827C237.352 191.009 238.413 189.037 239.384 186.419Z" fill="#E84C4F"/>
<path opacity="0.3" d="M239.384 186.419C242.417 178.27 244.682 171.516 244.298 166.956C243.832 161.547 241.81 157.129 232.893 154.905C223.976 152.681 211.51 152.721 211.51 152.721L207.719 154.915C207.719 154.915 233.358 169.777 236.27 171.395C238.049 172.406 239.95 176.864 236.462 190.483L237.059 190.827C237.352 191.009 238.413 189.037 239.384 186.419Z" fill="white"/>
<path d="M219.958 162.013L224.104 159.647C224.104 159.647 223.861 145.28 217.815 141.792C211.769 138.304 191.245 140.68 191.245 140.68L187.141 143.046L219.958 162.013Z" fill="#E84C4F"/>
<path d="M206.514 145.078C204.542 146.22 204.542 148.06 206.514 149.193C207.619 149.756 208.842 150.049 210.083 150.049C211.323 150.049 212.546 149.756 213.652 149.193C215.613 148.06 215.613 146.21 213.652 145.078C212.545 144.52 211.322 144.229 210.083 144.229C208.843 144.229 207.621 144.52 206.514 145.078Z" fill="#DEEDFA"/>
<path d="M212.824 151.943C211.439 152.752 211.439 154.056 212.824 154.855C213.606 155.255 214.473 155.463 215.352 155.463C216.23 155.463 217.097 155.255 217.879 154.855C219.274 154.056 219.274 152.752 217.879 151.943C217.095 151.547 216.229 151.341 215.352 151.341C214.474 151.341 213.608 151.547 212.824 151.943Z" fill="#DEEDFA"/>
<path d="M196.941 143.248C195.546 144.047 195.546 145.351 196.941 146.16C197.725 146.555 198.591 146.761 199.468 146.761C200.346 146.761 201.212 146.555 201.996 146.16C203.391 145.351 203.391 144.047 201.996 143.248C201.214 142.848 200.347 142.639 199.468 142.639C198.59 142.639 197.723 142.848 196.941 143.248Z" fill="#DEEDFA"/>
<path d="M220.606 157.847C221.415 157.15 222.224 157.433 222.426 158.484C222.5 159.06 222.439 159.646 222.245 160.194C222.052 160.742 221.733 161.237 221.314 161.639C221.185 161.811 221.005 161.937 220.799 162C220.594 162.062 220.373 162.058 220.17 161.987C219.968 161.916 219.793 161.782 219.671 161.605C219.549 161.428 219.487 161.216 219.494 161.002C219.416 160.425 219.476 159.839 219.67 159.29C219.863 158.742 220.184 158.247 220.606 157.847Z" fill="#E84C4F"/>
<path d="M230.042 162.316L221.792 157.554L219.992 161.912L228.252 166.674L230.042 162.316Z" fill="#E84C4F"/>
<path d="M228.764 162.589C228.893 162.417 229.074 162.291 229.279 162.228C229.485 162.165 229.705 162.17 229.908 162.241C230.111 162.312 230.286 162.446 230.407 162.623C230.529 162.8 230.591 163.011 230.584 163.226C230.661 163.802 230.601 164.389 230.407 164.937C230.214 165.485 229.894 165.98 229.472 166.38C228.663 167.078 227.855 166.785 227.652 165.744C227.577 165.167 227.638 164.582 227.832 164.034C228.025 163.485 228.344 162.991 228.764 162.589Z" fill="#E84C4F"/>
<path d="M228.764 162.589C228.893 162.417 229.074 162.291 229.279 162.228C229.485 162.165 229.705 162.17 229.908 162.241C230.111 162.312 230.286 162.446 230.407 162.623C230.529 162.8 230.591 163.011 230.584 163.226C230.661 163.802 230.601 164.389 230.407 164.937C230.214 165.485 229.894 165.98 229.472 166.38C228.663 167.078 227.855 166.785 227.652 165.744C227.577 165.167 227.638 164.582 227.832 164.034C228.025 163.485 228.344 162.991 228.764 162.589Z" fill="black"/>
<path d="M158.359 232.592C158.359 232.794 158.359 232.976 158.359 233.178C158.359 233.583 158.359 233.997 158.359 234.412C156.722 233.714 154.588 233.947 152.293 235.301C147.147 238.274 142.972 245.503 142.972 251.478C142.972 254.248 143.882 256.25 145.378 257.291C144.958 257.59 144.522 257.867 144.074 258.12L143.598 258.363L142.173 263.731L133.923 259.131C131.315 257.625 129.707 254.41 129.707 249.82C129.707 240.65 136.137 229.508 144.074 224.918C147.996 222.654 151.545 222.421 154.184 223.907L162.272 228.437L162.444 228.538L158.359 232.592Z" fill="#253B8E"/>
<path d="M133.751 216.547L127.594 237.89L139.918 245.008L146.298 223.796L133.751 216.547Z" fill="#E84C4F"/>
<path opacity="0.2" d="M133.751 216.547L127.594 237.89L139.918 245.008L146.298 223.796L133.751 216.547Z" fill="black"/>
<path d="M133.75 216.547C133.75 216.547 140.736 222.482 146.297 223.796C153.596 225.565 165.203 225.757 169.318 226.04C175.606 226.475 180.358 226.465 182.582 225.666C185.464 224.655 193.208 220.156 195.352 218.923C199.456 216.557 201.205 207.245 189.892 204.698C182.242 203.113 174.451 202.317 166.639 202.322L133.75 216.547Z" fill="#E84C4F"/>
<path d="M203.42 213.817C203.068 214.697 202.83 215.617 202.712 216.557C202.386 217.534 202.31 218.576 202.489 219.59C203.26 220.865 204.473 221.811 205.897 222.249C206.922 222.477 207.984 222.492 209.015 222.292C210.047 222.092 211.026 221.681 211.892 221.086C213.985 219.833 215.562 218.316 218.534 217.467C220.659 217.017 222.66 216.11 224.398 214.808C226.046 213.484 228.25 209.824 225.096 208.974C221.941 208.125 215.087 211.118 208.839 211.391L203.42 213.817Z" fill="#142050"/>
<path d="M203.418 209.915V214.586C203.609 215.111 203.942 215.573 204.379 215.92C204.816 216.268 205.341 216.489 205.895 216.557C206.403 216.632 206.921 216.576 207.401 216.396C208.159 216.106 208.815 215.602 209.289 214.945C209.763 214.287 210.035 213.505 210.07 212.695L210.252 209.915H203.418Z" fill="#FFA8A7"/>
<path d="M212.318 181.03C212.318 186.844 210.68 211.978 210.68 211.978C210.68 211.978 208.304 215.011 203.137 211.978L201.398 183.891L212.318 181.03Z" fill="#142050"/>
<path d="M185.22 205.8L201.397 196.478C202.059 196.131 202.615 195.608 203.002 194.967C203.389 194.327 203.594 193.592 203.594 192.844C203.594 192.095 203.389 191.361 203.002 190.72C202.615 190.08 202.059 189.557 201.397 189.209L189.345 182.253C188.667 181.91 187.917 181.73 187.156 181.73C186.396 181.73 185.646 181.91 184.968 182.253L168.791 191.575C168.131 191.925 167.579 192.449 167.194 193.089C166.809 193.729 166.605 194.462 166.605 195.21C166.605 195.957 166.809 196.69 167.194 197.33C167.579 197.971 168.131 198.494 168.791 198.844L180.843 205.8C181.521 206.144 182.271 206.323 183.031 206.323C183.792 206.323 184.542 206.144 185.22 205.8Z" fill="#E84C4F"/>
<path d="M185.22 205.8L201.397 196.478C202.059 196.131 202.615 195.608 203.002 194.967C203.389 194.327 203.594 193.592 203.594 192.844C203.594 192.095 203.389 191.361 203.002 190.72C202.615 190.08 202.059 189.557 201.397 189.209L189.345 182.253C188.667 181.91 187.917 181.73 187.156 181.73C186.396 181.73 185.646 181.91 184.968 182.253L168.791 191.575C168.131 191.925 167.579 192.449 167.194 193.089C166.809 193.729 166.605 194.462 166.605 195.21C166.605 195.957 166.809 196.69 167.194 197.33C167.579 197.971 168.131 198.494 168.791 198.844L180.843 205.8C181.521 206.144 182.271 206.323 183.031 206.323C183.792 206.323 184.542 206.144 185.22 205.8Z" fill="white"/>
<path d="M168.792 194.103L180.844 201.058C181.522 201.402 182.272 201.581 183.033 201.581C183.793 201.581 184.543 201.402 185.222 201.058L201.398 191.737C201.662 191.647 201.891 191.477 202.054 191.25C202.216 191.024 202.304 190.752 202.304 190.473C202.304 190.194 202.216 189.922 202.054 189.696C201.891 189.469 201.662 189.299 201.398 189.209L189.347 182.253C188.668 181.91 187.918 181.73 187.158 181.73C186.397 181.73 185.647 181.91 184.969 182.253L168.792 191.575C168.528 191.665 168.299 191.835 168.137 192.061C167.974 192.288 167.887 192.56 167.887 192.839C167.887 193.118 167.974 193.39 168.137 193.616C168.299 193.843 168.528 194.013 168.792 194.103Z" fill="#E84C4F"/>
<path d="M178.65 132.228L176.597 140.69L167.781 141.226L169.682 129.498L178.65 132.228Z" fill="#FFA8A7"/>
<path d="M187.242 125.858C187.242 125.858 188.253 129.437 187.839 129.64C187.202 129.737 186.555 129.737 185.918 129.64L187.242 125.858Z" fill="#F28F8F"/>
<path d="M185.554 114.434C186.97 116.102 188.264 118.842 187.263 125.555C186.171 132.895 184.816 133.744 183.724 134.452C182.299 135.382 176.596 134.887 174.989 133.714C173.058 132.309 170.075 127.85 169.368 123.452C168.539 118.286 170.268 112.553 174.069 111.573C179.417 110.188 184.351 113.019 185.554 114.434Z" fill="#FFA8A7"/>
<path d="M168.793 131.874C170.158 133.29 172.958 133.674 174.717 133.997C176.477 134.321 181.886 134.675 183.483 130.823C185.08 126.971 183.989 124.2 185.95 123.27C187.911 122.34 189.873 121.734 190.388 121.248C190.904 120.763 190.914 114.424 185.647 111.138C180.379 107.852 172.311 107.094 167.003 113.757C162.98 118.903 164.627 127.527 168.793 131.874Z" fill="#253B8E"/>
<path d="M174.102 134.048C175.466 134.169 179.784 133.492 181.088 131.712C182.392 129.933 182.918 126.748 183.11 125.08C183.127 124.423 183.368 123.792 183.793 123.29C184.217 122.788 184.8 122.446 185.445 122.32C186.749 121.906 189.631 120.49 189.631 120.49V119.702C190.56 119.643 191.492 119.643 192.421 119.702C193.028 119.813 192.694 120.713 191.157 121.491C189.621 122.27 185.405 123.776 184.758 124.292C184.111 124.807 183.807 126.981 183.292 129.296C182.776 131.611 181.179 135.069 174.102 134.048Z" fill="#142050"/>
<path d="M186.231 143.622L191.286 140.721C191.772 139.255 190.993 138.517 189.618 138.608C188.243 138.699 188.668 137.364 187.829 136.99C186.727 136.484 186.1 136.768 185.605 136.535C185.109 136.302 184.897 135.716 184.25 135.645C181.358 135.372 179.387 139.497 179.387 139.497L186.231 143.622Z" fill="#F28F8F"/>
<path d="M151.918 180.747C151.918 180.747 174.251 169.676 178.144 167.887C182.036 166.097 188.143 163.499 191.388 163.499C192.656 163.604 193.844 164.162 194.734 165.072C195.624 165.982 196.155 167.183 196.231 168.453C196.273 170.403 196.161 172.354 195.897 174.287C189.761 176.3 183.491 177.877 177.133 179.008C167.842 180.626 151.918 180.747 151.918 180.747Z" fill="#142050"/>
<path d="M154.343 174.347C154.343 178.937 153.909 183.709 155.819 187.066C157.73 190.423 168.083 198.187 177.829 196.559C184.199 195.488 203.105 186.783 203.105 186.783C203.105 186.783 212.275 183.416 212.315 181.02C212.376 177.492 212.133 172.517 204.136 172.73C196.847 172.922 175.342 177.411 175.342 177.411L154.343 174.347Z" fill="#253B8E"/>
<path d="M160.585 137.981C164.042 134.371 166.378 134.068 168.036 134.513C171.846 135.603 175.535 137.08 179.046 138.921C179.046 138.921 177.711 151.842 184.03 155.562V175.702C184.03 175.702 183.838 177.886 181.088 180.059C178.662 181.97 173.172 183.901 166.62 183.355C158.836 182.708 154.347 174.347 154.347 174.347C154.347 174.347 154.144 157.877 155.246 151.336C156.541 143.703 159.392 139.234 160.585 137.981Z" fill="#253B8E"/>
<path d="M184.027 156.543C184.027 156.543 180.206 153.51 179.043 149.567C179.043 149.567 179.498 155.754 184.027 158.888V156.543Z" fill="#142050"/>
<path d="M219.404 166.047C221.22 166.121 223.005 165.568 224.459 164.48C224.459 164.48 226.219 161.062 228.382 161.356C228.382 161.356 228.766 159.9 227.877 159.425C226.987 158.949 226.603 159.081 226.239 158.575C225.875 158.07 225.834 157.13 224.217 157.13C223.55 157.13 223.641 156.654 222.023 156.462C220.405 156.27 218.808 160.001 217.625 160.001L219.404 166.047Z" fill="#FFA8A7"/>
<path d="M179.045 138.921C184.596 139.78 186.608 141.428 188.63 143.299C190.652 145.169 203.026 157.584 203.026 157.584L218.01 159.738C218.797 160.375 219.375 161.235 219.668 162.205C220.275 163.964 219.729 165.885 219.152 166.34C219.152 166.34 204.29 167.229 201.368 166.673C198.447 166.117 183.979 156.513 183.979 156.513C182.596 155.47 181.436 154.16 180.568 152.662C179.7 151.163 179.141 149.506 178.924 147.788C177.984 141.691 179.045 138.921 179.045 138.921Z" fill="#253B8E"/>
<path d="M165.719 192.323L142.759 220.349C142.504 220.381 142.247 220.398 141.99 220.399C141.08 220.413 140.18 220.202 139.372 219.782L119.98 208.58L118.666 207.822C117.948 207.407 117.352 205.709 117.352 204.031V199.309C117.351 194.459 118.627 189.694 121.051 185.494C123.475 181.293 126.962 177.804 131.162 175.378L154.314 162.013L178.953 176.238L165.719 192.323Z" fill="#E84C4F"/>
<g opacity="0.1">
<path opacity="0.1" d="M165.719 192.323L142.759 220.349C142.504 220.381 142.247 220.398 141.99 220.399C141.08 220.413 140.18 220.202 139.372 219.782L119.98 208.58L118.666 207.822C117.948 207.407 117.352 205.709 117.352 204.031V199.309C117.351 194.459 118.627 189.694 121.051 185.494C123.475 181.293 126.962 177.804 131.162 175.378L154.314 162.013L178.953 176.238L165.719 192.323Z" fill="black"/>
</g>
<path d="M157.801 201.989L178.921 176.248L154.283 162.023L131.14 175.379C128.147 177.112 125.506 179.392 123.355 182.102L157.801 201.989Z" fill="#E84C4F"/>
<path d="M178.924 196.913C178.924 198.591 178.337 200.29 177.61 200.704L176.295 201.463L144.59 219.772C144.013 220.083 143.381 220.279 142.729 220.349C142.474 220.381 142.218 220.398 141.961 220.399V213.534C141.96 208.683 143.237 203.917 145.663 199.716C148.089 195.515 151.579 192.027 155.782 189.603L158.4 188.097L178.924 176.238V196.913Z" fill="#E84C4F"/>
<g opacity="0.2">
<path opacity="0.2" d="M178.924 196.913C178.924 198.591 178.337 200.29 177.61 200.704L176.295 201.463L144.59 219.772C144.013 220.083 143.381 220.279 142.729 220.349C142.474 220.381 142.218 220.398 141.961 220.399V213.534C141.96 208.683 143.237 203.917 145.663 199.716C148.089 195.515 151.579 192.027 155.782 189.603L158.4 188.097L178.924 176.238V196.913Z" fill="black"/>
</g>
<path d="M185.726 231.591L198.131 231.551L215.885 221.299L198.495 233.866L185.402 234.048L185.726 231.591Z" fill="#E0E0E0"/>
<path d="M155.61 249.244C155.61 249.244 177.974 240.812 179.875 239.821C182.106 238.454 184.222 236.909 186.204 235.201C186.608 234.666 186.798 233.999 186.737 233.331C186.675 232.664 186.366 232.043 185.87 231.591C185.87 231.591 176.771 231.177 174.436 231.895C173.131 232.289 152.082 239.042 152.082 239.042L155.61 249.244Z" fill="#E0E0E0"/>
<path d="M154.609 239.821C152.759 238.234 150.899 238.891 150.444 241.277C150.27 242.593 150.409 243.932 150.85 245.185C151.291 246.437 152.021 247.568 152.981 248.485C154.832 250.073 156.692 249.425 157.147 247.029C157.32 245.713 157.18 244.374 156.739 243.122C156.298 241.87 155.569 240.739 154.609 239.821Z" fill="#455A64"/>
</g>
<defs>
<clipPath id="clip0">
<rect width="440" height="365.117" fill="white"/>
</clipPath>
</defs>
</svg>
