<svg width="20" height="20" viewBox="0 0 20 20" fill="none" xmlns="http://www.w3.org/2000/svg">
<path d="M16.5715 8.28571V4.0357C16.5715 3.70037 16.2996 3.42855 15.9643 3.42855H11.7143C11.7143 2.08731 10.627 1 9.28575 1C7.94447 1 6.85716 2.08731 6.85716 3.42858H2.60719C2.27186 3.42858 2.00004 3.70041 2.00004 4.0357V9.36519C2.00014 9.70052 2.27204 9.97227 2.60733 9.97217C2.75728 9.97213 2.90189 9.9166 3.01335 9.81628C3.50929 9.36483 4.27728 9.40091 4.72873 9.89685C5.18017 10.3928 5.1441 11.1608 4.64815 11.6122C4.18482 12.034 3.47667 12.034 3.01335 11.6122C2.76411 11.3879 2.38022 11.4081 2.15589 11.6573C2.05557 11.7688 2.00004 11.9134 2 12.0633V17.3928C2 17.7282 2.27183 18 2.60715 18H7.93664C8.27197 17.9999 8.54373 17.728 8.54362 17.3927C8.54358 17.2428 8.48805 17.0981 8.38773 16.9867C7.93629 16.4907 7.97236 15.7228 8.46831 15.2713C8.96426 14.8199 9.73224 14.8559 10.1837 15.3519C10.6055 15.8152 10.6055 16.5234 10.1837 16.9867C9.95935 17.2359 9.97956 17.6198 10.2288 17.8441C10.3402 17.9445 10.4848 18 10.6348 18H15.9643C16.2996 18 16.5714 17.7282 16.5714 17.3929V13.1428C17.9127 13.1428 19 12.0555 19 10.7143C19 9.37298 17.9127 8.28571 16.5715 8.28571ZM16.5715 11.9286C16.4333 11.9265 16.2965 11.9006 16.1671 11.8521C15.8511 11.7401 15.504 11.9055 15.392 12.2216C15.369 12.2866 15.3572 12.355 15.3572 12.424V16.7857H11.6354C11.6879 16.5876 11.7144 16.3835 11.7143 16.1785C11.7143 14.8373 10.627 13.75 9.28575 13.75C7.94447 13.75 6.85716 14.8373 6.85716 16.1785C6.85709 16.3835 6.88363 16.5876 6.9361 16.7857H3.21431V13.0639C3.41242 13.1164 3.61652 13.1429 3.82146 13.1429C5.16274 13.1429 6.25004 12.0556 6.25004 10.7143C6.25004 9.37302 5.16274 8.28571 3.82146 8.28571C3.61652 8.28564 3.41242 8.31218 3.21431 8.36465V4.64285H7.57602C7.91135 4.64268 8.183 4.37067 8.18282 4.03538C8.18279 3.9664 8.17097 3.89795 8.14796 3.83292C8.0994 3.70354 8.0735 3.56675 8.07147 3.42858C8.07147 2.75796 8.61513 2.21431 9.28575 2.21431C9.95637 2.21431 10.5 2.75796 10.5 3.42858C10.498 3.56675 10.4721 3.70354 10.4235 3.83292C10.3115 4.14897 10.477 4.496 10.793 4.60799C10.858 4.63104 10.9265 4.64282 10.9954 4.64285H15.3571V9.00457C15.3573 9.3399 15.6293 9.61154 15.9646 9.61137C16.0336 9.61133 16.102 9.59952 16.167 9.5765C16.2964 9.52794 16.4332 9.50205 16.5714 9.50002C17.242 9.50002 17.7857 10.0437 17.7857 10.7143C17.7857 11.3849 17.2421 11.9286 16.5715 11.9286Z" fill="#312D75" stroke="#312D75" stroke-width="0.2"/>
</svg>
