<svg width="38" height="36" viewBox="0 0 38 36" fill="none" xmlns="http://www.w3.org/2000/svg">
<g clip-path="url(#clip0)">
<path d="M37.2577 9H18.4947C18.5581 8.64548 18.5916 8.28148 18.5916 7.91016C18.5916 4.32387 15.5119 1.40625 11.7264 1.40625C7.94088 1.40625 4.86118 4.32387 4.86118 7.91016C4.86118 11.2589 7.54648 14.0242 10.9842 14.376V23.469H3.30859C2.89868 23.469 2.56641 23.7838 2.56641 24.1721C2.56641 24.5604 2.89868 24.8752 3.30859 24.8752H10.9842V33.8906C10.9842 34.279 11.3165 34.5938 11.7264 34.5938H21.8202C22.23 34.5938 22.5623 34.279 22.5623 33.8906C22.5623 33.5023 22.23 33.1875 21.8202 33.1875H12.4686V14.376C14.9989 14.1171 17.1213 12.5506 18.0656 10.4062H20.4842V16.8281C20.4842 17.1127 20.6653 17.3693 20.943 17.4779C21.2209 17.5866 21.5403 17.526 21.7522 17.3243L24.492 14.7189L27.2319 17.3244C27.3739 17.4594 27.5642 17.5313 27.7578 17.5313C27.8532 17.5313 27.9494 17.5139 28.041 17.478C28.3187 17.3694 28.4998 17.1128 28.4998 16.8282V10.4062H36.5155V33.1875H28.4998C28.09 33.1875 27.7577 33.5023 27.7577 33.8906C27.7577 34.279 28.09 34.5938 28.4998 34.5938H37.2577C37.6675 34.5938 37.9998 34.279 37.9998 33.8906V9.70312C37.9998 9.31479 37.6675 9 37.2577 9ZM11.7264 13.0078C8.75937 13.0078 6.34555 10.721 6.34555 7.91016C6.34555 5.09927 8.75937 2.8125 11.7264 2.8125C14.6935 2.8125 17.1073 5.09927 17.1073 7.91016C17.1073 10.721 14.6935 13.0078 11.7264 13.0078ZM27.0155 15.126L25.0178 13.2263C24.8786 13.0939 24.6894 13.0195 24.492 13.0195C24.2947 13.0195 24.1055 13.0939 23.9663 13.2263L21.9686 15.126V10.4062H27.0155V15.126Z" fill="#C0C4CD" stroke="#C0C4CD" stroke-width="0.4"/>
<path d="M32.9839 28.6721C32.9839 28.2838 32.6516 27.969 32.2417 27.969H26.7305C26.3206 27.969 25.9883 28.2838 25.9883 28.6721C25.9883 29.0605 26.3206 29.3753 26.7305 29.3753H32.2417C32.6516 29.3753 32.9839 29.0605 32.9839 28.6721Z" fill="#C0C4CD" stroke="#C0C4CD" stroke-width="0.4"/>
<path d="M32.2422 26.0003C32.652 26.0003 32.9844 25.6855 32.9844 25.2971V22.2034C32.9844 21.8151 32.652 21.5003 32.2422 21.5003H24.5234C24.1136 21.5003 23.7812 21.8151 23.7812 22.2034V25.2971C23.7812 25.6855 24.1136 26.0003 24.5234 26.0003H32.2422ZM25.2656 22.9065H31.5V24.594H25.2656V22.9065Z" fill="#C0C4CD" stroke="#C0C4CD" stroke-width="0.4"/>
<path d="M0.742188 20.3753H2.0255C2.43541 20.3753 2.76769 20.0605 2.76769 19.6721C2.76769 19.2838 2.43541 18.969 2.0255 18.969H0.742188C0.332277 18.969 0 19.2838 0 19.6721C0 20.0605 0.332277 20.3753 0.742188 20.3753Z" fill="#C0C4CD" stroke="#C0C4CD" stroke-width="0.4"/>
<path d="M7.94085 20.3753C8.35076 20.3753 8.68304 20.0605 8.68304 19.6721C8.68304 19.2838 8.35076 18.969 7.94085 18.969H5.73047C5.32056 18.969 4.98828 19.2838 4.98828 19.6721C4.98828 20.0605 5.32056 20.3753 5.73047 20.3753H7.94085Z" fill="#C0C4CD" stroke="#C0C4CD" stroke-width="0.4"/>
<path d="M7.94141 27.969H0.742188C0.332277 27.969 0 28.2838 0 28.6721C0 29.0605 0.332277 29.3753 0.742188 29.3753H7.94141C8.35132 29.3753 8.68359 29.0605 8.68359 28.6721C8.68359 28.2838 8.35132 27.969 7.94141 27.969Z" fill="#C0C4CD" stroke="#C0C4CD" stroke-width="0.4"/>
<path d="M25.1602 33.1875C24.965 33.1875 24.7735 33.2627 24.6354 33.3935C24.4974 33.5243 24.418 33.7057 24.418 33.8906C24.418 34.0755 24.4973 34.257 24.6354 34.3877C24.7736 34.5185 24.965 34.5938 25.1602 34.5938C25.3554 34.5938 25.5468 34.5185 25.6848 34.3877C25.8229 34.257 25.9023 34.0755 25.9023 33.8906C25.9023 33.7057 25.8229 33.5243 25.6848 33.3935C25.5468 33.2627 25.3554 33.1875 25.1602 33.1875Z" fill="#C0C4CD" stroke="#C0C4CD" stroke-width="0.4"/>
<path d="M13.1746 6.38451L11.6398 7.8385L11.1225 7.34835C10.8327 7.07378 10.3627 7.07378 10.0728 7.34835C9.78301 7.62292 9.78301 8.06814 10.0728 8.34278L11.115 9.33011C11.26 9.46743 11.4499 9.53606 11.6398 9.53606C11.8297 9.53606 12.0197 9.46743 12.1646 9.33011L14.2242 7.37894C14.514 7.10437 14.514 6.65915 14.2242 6.38451C13.9344 6.10987 13.4644 6.10987 13.1746 6.38451Z" fill="#C0C4CD" stroke="#C0C4CD" stroke-width="0.4"/>
</g>
<defs>
<clipPath id="clip0">
<rect width="38" height="36" fill="white"/>
</clipPath>
</defs>
</svg>
