<svg width="50" height="50" viewBox="0 0 50 50" fill="none" xmlns="http://www.w3.org/2000/svg">
<circle cx="25" cy="25" r="20" fill="#EAF5FF"/>
<circle opacity="0.4" cx="25.5063" cy="18.9926" r="5.99263" stroke="#312D75" stroke-width="1.5" stroke-linecap="round" stroke-linejoin="round"/>
<path fill-rule="evenodd" clip-rule="evenodd" d="M16 33.3198C15.9984 32.8985 16.0926 32.4824 16.2755 32.1029C16.8495 30.9549 18.4682 30.3464 19.8114 30.0709C20.7801 29.8642 21.7622 29.7261 22.7503 29.6576C24.5798 29.4969 26.4198 29.4969 28.2493 29.6576C29.2374 29.7269 30.2194 29.865 31.1882 30.0709C32.5314 30.3464 34.1501 30.8975 34.7241 32.1029C35.092 32.8765 35.092 33.7746 34.7241 34.5482C34.1501 35.7536 32.5314 36.3046 31.1882 36.5687C30.2207 36.784 29.2382 36.9259 28.2493 36.9934C26.7603 37.1197 25.2643 37.1427 23.7721 37.0623C23.4277 37.0623 23.0947 37.0623 22.7503 36.9934C21.7651 36.9268 20.7864 36.7848 19.8229 36.5687C18.4682 36.3046 16.861 35.7536 16.2755 34.5482C16.0936 34.1643 15.9994 33.7446 16 33.3198Z" stroke="#312D75" stroke-width="1.5" stroke-linecap="round" stroke-linejoin="round"/>
</svg>
