<svg width="33" height="32" viewBox="0 0 33 32" fill="none" xmlns="http://www.w3.org/2000/svg">
<path d="M21.0938 17.2143H23.0273V19.0893H21.0938V17.2143Z" fill="#312D75"/>
<path d="M16.6406 17.2143H18.5742V19.0893H16.6406V17.2143Z" fill="#312D75"/>
<path d="M12.1914 17.2143H14.125V19.0893H12.1914V17.2143Z" fill="#312D75"/>
<path d="M33 7.39288C33 3.31644 29.58 0 25.3761 0C22.309 0 19.6595 1.76563 18.4507 4.30356H6.72362L6.2798 0H0V1.875H4.52989L4.80743 4.56588L6.57345 21.6912C5.33143 22.1131 4.43805 23.2606 4.43805 24.6071C4.43805 26.3106 5.86723 27.6964 7.6239 27.6964H9.11973C8.95467 28.0693 8.86295 28.4798 8.86295 28.9107C8.86295 30.6141 10.2921 32 12.0487 32C13.8054 32 15.2346 30.6141 15.2346 28.9107C15.2346 28.4798 15.1429 28.0694 14.9778 27.6964H20.2414C20.0763 28.0693 19.9846 28.4798 19.9846 28.9107C19.9846 30.6141 21.4138 32 23.1704 32C24.9271 32 26.3563 30.6141 26.3563 28.9107C26.3563 28.4798 26.2646 28.0694 26.0995 27.6964H28.4699V25.8214H7.6239C6.93342 25.8214 6.37164 25.2767 6.37164 24.6071C6.37164 23.9376 6.93342 23.3928 7.6239 23.3928H28.4701L29.4777 13.6222C31.5943 12.3072 33 10.0063 33 7.39288ZM12.0487 30.125C11.3582 30.125 10.7965 29.5803 10.7965 28.9107C10.7965 28.2411 11.3582 27.6964 12.0487 27.6964C12.7392 27.6964 13.3009 28.2411 13.3009 28.9107C13.3009 29.5803 12.7392 30.125 12.0487 30.125ZM23.1703 30.125C22.4798 30.125 21.9181 29.5803 21.9181 28.9107C21.9181 28.2411 22.4798 27.6964 23.1703 27.6964C23.8608 27.6964 24.4226 28.2411 24.4226 28.9107C24.4226 29.5803 23.8608 30.125 23.1703 30.125ZM25.3761 1.875C28.5138 1.875 31.0664 4.35031 31.0664 7.39288C31.0664 10.4354 28.5138 12.9108 25.3761 12.9108C22.2385 12.9108 19.6859 10.4354 19.6859 7.39288C19.6859 4.35031 22.2385 1.875 25.3761 1.875ZM26.7201 21.5179H8.49879L6.91698 6.17856H17.8556C17.788 6.57381 17.7523 6.97931 17.7523 7.39288C17.7523 11.4693 21.1723 14.7858 25.3761 14.7858C26.0922 14.7858 26.7854 14.6894 27.4429 14.5096L26.7201 21.5179Z" fill="#312D75"/>
<path d="M29.0764 6.28243L27.7092 4.95662L24.7352 7.84049L23.043 6.19968L21.6758 7.52549L24.7352 10.4922L29.0764 6.28243Z" fill="#312D75"/>
</svg>
