<svg width="33" height="42" viewBox="0 0 33 42" fill="none" xmlns="http://www.w3.org/2000/svg">
<path d="M32.0929 10.2336L29.1005 7.24133V2.77797C29.1005 1.79758 28.3029 1 27.3224 1H2.75578C1.78766 1 1 1.78766 1 2.75578V32.2113C1 33.1795 1.78766 33.9671 2.75578 33.9671H3.74891V34.9455C3.74891 35.9137 4.53656 36.7013 5.50477 36.7013H9.31359C9.63719 36.7013 9.89953 36.4391 9.89953 36.1154C9.89953 35.7917 9.63719 35.5295 9.31359 35.5295H5.50477C5.18273 35.5295 4.92078 35.2675 4.92078 34.9455V11.3874C4.92078 11.0637 4.65844 10.8015 4.33484 10.8015C4.01125 10.8015 3.74891 11.0637 3.74891 11.3874V32.7952H2.75578C2.43383 32.7952 2.17187 32.5333 2.17187 32.2113V2.75578C2.17187 2.43383 2.43383 2.17188 2.75578 2.17188H27.3225C27.6567 2.17188 27.9287 2.44375 27.9287 2.77797V6.06953L25.7648 3.90586C25.6549 3.79602 25.5059 3.7343 25.3505 3.7343H5.50477C4.53656 3.7343 3.74891 4.52195 3.74891 5.49008V8.65984C3.74891 8.98352 4.01125 9.24578 4.33484 9.24578C4.65844 9.24578 4.92078 8.98352 4.92078 8.65984V5.49C4.92078 5.16805 5.18273 4.90609 5.50477 4.90609H24.7645V10.6469C24.7645 10.9705 25.0268 11.2327 25.3504 11.2328L31.0927 11.2338V34.9455C31.0927 35.2674 30.8307 35.5294 30.5087 35.5294H26.7455C26.4219 35.5294 26.1595 35.7916 26.1595 36.1153C26.1595 36.439 26.4219 36.7013 26.7455 36.7013H30.5087C31.4769 36.7013 32.2645 35.9136 32.2645 34.9455V10.648C32.2645 10.4926 32.2028 10.3436 32.0929 10.2336ZM25.9364 10.061V5.73469L30.2637 10.0618L25.9364 10.061Z" fill="#312D75"/>
<path d="M25.03 14.7075H11.0127C10.6891 14.7075 10.4267 14.9697 10.4267 15.2934C10.4267 15.6171 10.6891 15.8793 11.0127 15.8793H25.03C25.3536 15.8793 25.6159 15.6171 25.6159 15.2934C25.6159 14.9697 25.3536 14.7075 25.03 14.7075Z" fill="#312D75"/>
<path d="M25.03 18.1631H11.0127C10.6891 18.1631 10.4267 18.4254 10.4267 18.7491C10.4267 19.0727 10.6891 19.335 11.0127 19.335H25.03C25.3536 19.335 25.6159 19.0727 25.6159 18.7491C25.6159 18.4254 25.3536 18.1631 25.03 18.1631Z" fill="#312D75"/>
<path d="M25.0299 21.6876H22.2606C21.937 21.6876 21.6746 21.9499 21.6746 22.2736C21.6746 22.5973 21.937 22.8595 22.2606 22.8595H25.0299C25.3535 22.8595 25.6158 22.5973 25.6158 22.2736C25.6158 21.9499 25.3535 21.6876 25.0299 21.6876Z" fill="#312D75"/>
<path d="M19.5031 22.8595C19.8267 22.8595 20.0891 22.5973 20.0891 22.2736C20.0891 21.9499 19.8267 21.6876 19.5031 21.6876H11.0127C10.6891 21.6876 10.4267 21.9499 10.4267 22.2736C10.4267 22.5973 10.6891 22.8595 11.0127 22.8595H19.5031Z" fill="#312D75"/>
<path d="M20.1692 33.078L18.6072 31.5161V37.1806C18.6072 37.5043 18.3449 37.7666 18.0213 37.7666C17.6977 37.7666 17.4353 37.5043 17.4353 37.1806V31.5161L15.8733 33.078C15.6445 33.3068 15.2735 33.3069 15.0447 33.078C14.8159 32.8491 14.8159 32.4781 15.0447 32.2494L17.607 29.6872C17.7213 29.5728 17.8713 29.5156 18.0213 29.5156C18.1712 29.5156 18.3212 29.5728 18.4356 29.6872L20.9978 32.2494C21.2267 32.4782 21.2267 32.8492 20.9978 33.078C20.7691 33.3068 20.3981 33.3067 20.1692 33.078Z" fill="#312D75"/>
<path d="M18.0212 26.282C13.9634 26.282 10.6619 29.5833 10.6619 33.641C10.6619 37.6987 13.9634 40.9999 18.0212 40.9999C22.0791 40.9999 25.3805 37.6987 25.3805 33.641C25.3805 29.5833 22.0791 26.282 18.0212 26.282ZM18.0212 39.8281C14.6095 39.8281 11.8338 37.0527 11.8338 33.6411C11.8338 30.2295 14.6095 27.454 18.0212 27.454C21.433 27.454 24.2087 30.2295 24.2087 33.6411C24.2087 37.0527 21.433 39.8281 18.0212 39.8281Z" fill="#312D75"/>
<path d="M32.0929 10.2336L29.1005 7.24133V2.77797C29.1005 1.79758 28.3029 1 27.3224 1H2.75578C1.78766 1 1 1.78766 1 2.75578V32.2113C1 33.1795 1.78766 33.9671 2.75578 33.9671H3.74891V34.9455C3.74891 35.9137 4.53656 36.7013 5.50477 36.7013H9.31359C9.63719 36.7013 9.89953 36.4391 9.89953 36.1154C9.89953 35.7917 9.63719 35.5295 9.31359 35.5295H5.50477C5.18273 35.5295 4.92078 35.2675 4.92078 34.9455V11.3874C4.92078 11.0637 4.65844 10.8015 4.33484 10.8015C4.01125 10.8015 3.74891 11.0637 3.74891 11.3874V32.7952H2.75578C2.43383 32.7952 2.17187 32.5333 2.17187 32.2113V2.75578C2.17187 2.43383 2.43383 2.17188 2.75578 2.17188H27.3225C27.6567 2.17188 27.9287 2.44375 27.9287 2.77797V6.06953L25.7648 3.90586C25.6549 3.79602 25.5059 3.7343 25.3505 3.7343H5.50477C4.53656 3.7343 3.74891 4.52195 3.74891 5.49008V8.65984C3.74891 8.98352 4.01125 9.24578 4.33484 9.24578C4.65844 9.24578 4.92078 8.98352 4.92078 8.65984V5.49C4.92078 5.16805 5.18273 4.90609 5.50477 4.90609H24.7645V10.6469C24.7645 10.9705 25.0268 11.2327 25.3504 11.2328L31.0927 11.2338V34.9455C31.0927 35.2674 30.8307 35.5294 30.5087 35.5294H26.7455C26.4219 35.5294 26.1595 35.7916 26.1595 36.1153C26.1595 36.439 26.4219 36.7013 26.7455 36.7013H30.5087C31.4769 36.7013 32.2645 35.9136 32.2645 34.9455V10.648C32.2645 10.4926 32.2028 10.3436 32.0929 10.2336ZM25.9364 10.061V5.73469L30.2637 10.0618L25.9364 10.061Z" stroke="#312D75" stroke-width="0.2"/>
<path d="M25.03 14.7075H11.0127C10.6891 14.7075 10.4267 14.9697 10.4267 15.2934C10.4267 15.6171 10.6891 15.8793 11.0127 15.8793H25.03C25.3536 15.8793 25.6159 15.6171 25.6159 15.2934C25.6159 14.9697 25.3536 14.7075 25.03 14.7075Z" stroke="#312D75" stroke-width="0.2"/>
<path d="M25.03 18.1631H11.0127C10.6891 18.1631 10.4267 18.4254 10.4267 18.7491C10.4267 19.0727 10.6891 19.335 11.0127 19.335H25.03C25.3536 19.335 25.6159 19.0727 25.6159 18.7491C25.6159 18.4254 25.3536 18.1631 25.03 18.1631Z" stroke="#312D75" stroke-width="0.2"/>
<path d="M25.0299 21.6876H22.2606C21.937 21.6876 21.6746 21.9499 21.6746 22.2736C21.6746 22.5973 21.937 22.8595 22.2606 22.8595H25.0299C25.3535 22.8595 25.6158 22.5973 25.6158 22.2736C25.6158 21.9499 25.3535 21.6876 25.0299 21.6876Z" stroke="#312D75" stroke-width="0.2"/>
<path d="M19.5031 22.8595C19.8267 22.8595 20.0891 22.5973 20.0891 22.2736C20.0891 21.9499 19.8267 21.6876 19.5031 21.6876H11.0127C10.6891 21.6876 10.4267 21.9499 10.4267 22.2736C10.4267 22.5973 10.6891 22.8595 11.0127 22.8595H19.5031Z" stroke="#312D75" stroke-width="0.2"/>
<path d="M20.1692 33.078L18.6072 31.5161V37.1806C18.6072 37.5043 18.3449 37.7666 18.0213 37.7666C17.6977 37.7666 17.4353 37.5043 17.4353 37.1806V31.5161L15.8733 33.078C15.6445 33.3068 15.2735 33.3069 15.0447 33.078C14.8159 32.8491 14.8159 32.4781 15.0447 32.2494L17.607 29.6872C17.7213 29.5728 17.8713 29.5156 18.0213 29.5156C18.1712 29.5156 18.3212 29.5728 18.4356 29.6872L20.9978 32.2494C21.2267 32.4782 21.2267 32.8492 20.9978 33.078C20.7691 33.3068 20.3981 33.3067 20.1692 33.078Z" stroke="#312D75" stroke-width="0.2"/>
<path d="M18.0212 26.282C13.9634 26.282 10.6619 29.5833 10.6619 33.641C10.6619 37.6987 13.9634 40.9999 18.0212 40.9999C22.0791 40.9999 25.3805 37.6987 25.3805 33.641C25.3805 29.5833 22.0791 26.282 18.0212 26.282ZM18.0212 39.8281C14.6095 39.8281 11.8338 37.0527 11.8338 33.6411C11.8338 30.2295 14.6095 27.454 18.0212 27.454C21.433 27.454 24.2087 30.2295 24.2087 33.6411C24.2087 37.0527 21.433 39.8281 18.0212 39.8281Z" stroke="#312D75" stroke-width="0.2"/>
</svg>
