<svg width="15" height="16" viewBox="0 0 15 16" fill="none" xmlns="http://www.w3.org/2000/svg">
<path fill-rule="evenodd" clip-rule="evenodd" d="M11.6118 1.80876V2.81031H13.1912H13.1925V2.8129C13.6914 2.8142 14.1436 3.01633 14.4701 3.34413C14.794 3.66934 14.9961 4.11894 14.9974 4.61648H15V4.61907V14.1125V14.1138H14.9974C14.9961 14.6113 14.794 15.0635 14.4662 15.3913C14.141 15.7152 13.6914 15.9173 13.1938 15.9186V15.9212H13.1912H5.19694H5.19565V15.9186C4.69811 15.9173 4.24462 15.7152 3.91811 15.3874C3.5942 15.0622 3.39207 14.6126 3.39077 14.1151H3.38818V14.1125V11.9863H1.80876H1.80746V11.9837C1.30992 11.9824 0.85644 11.7803 0.52993 11.4524C0.206012 11.1272 0.00388702 10.6776 0.00259134 10.1801H0V10.1775V1.80876V1.80746H0.00259134C0.00388702 1.30863 0.207308 0.85644 0.533817 0.52993C0.859031 0.206012 1.30863 0.00388702 1.80617 0.00259134V0H1.80876H9.80306H9.80435V0.00259134C10.3032 0.00388702 10.7554 0.206012 11.0819 0.533817C11.4058 0.859031 11.6079 1.30863 11.6092 1.80617H11.6118V1.80876ZM10.241 2.81031V1.80876V1.80617H10.2436C10.2436 1.68826 10.1931 1.57942 10.1127 1.49909C10.0337 1.42006 9.92356 1.36953 9.80565 1.36953V1.37212H9.80435H1.81005H1.80746V1.36953C1.68956 1.36953 1.58072 1.42006 1.50039 1.50039C1.42135 1.57942 1.37082 1.68956 1.37082 1.80746H1.37341V1.80876V10.1775V10.1801H1.37082C1.37082 10.298 1.42135 10.4068 1.50168 10.4872C1.58072 10.5662 1.69085 10.6167 1.80876 10.6167V10.6141H1.81005H3.38948V4.61907V4.61778H3.39207C3.39337 4.11894 3.59679 3.66675 3.9233 3.34024C4.24851 3.01633 4.69811 2.8142 5.19565 2.8129V2.81031H5.19824H10.241ZM13.6279 14.1125V4.61907V4.61648H13.6305C13.6305 4.49858 13.5799 4.38974 13.4996 4.30941C13.4206 4.23037 13.3104 4.17984 13.1925 4.17984V4.18243H13.1912H5.19694H5.19435V4.17984C5.07645 4.17984 4.96761 4.23037 4.88728 4.3107C4.80824 4.38974 4.75771 4.49987 4.75771 4.61778H4.7603V4.61907V14.1125V14.1151H4.75771C4.75771 14.233 4.80824 14.3418 4.88857 14.4221C4.96761 14.5012 5.07774 14.5517 5.19565 14.5517V14.5491H5.19694H13.1912H13.1938V14.5517C13.3117 14.5517 13.4206 14.5012 13.5009 14.4208C13.5799 14.3418 13.6305 14.2317 13.6305 14.1138H13.6279V14.1125Z" fill="#312D75"/>
</svg>
