<svg width="20" height="20" viewBox="0 0 20 20" fill="none" xmlns="http://www.w3.org/2000/svg">
<path d="M6.7179 8.00039H9.42183C9.65518 8.00039 9.84433 7.81385 9.84433 7.58373C9.84433 7.35361 9.65518 7.16708 9.42183 7.16708H6.7179C6.48455 7.16708 6.2954 7.35361 6.2954 7.58373C6.2954 7.81385 6.48459 8.00039 6.7179 8.00039Z" fill="#312D75"/>
<path d="M11.9568 9.87535H6.7179C6.48455 9.87535 6.2954 10.0619 6.2954 10.292C6.2954 10.5221 6.48455 10.7087 6.7179 10.7087H11.9568C12.1901 10.7087 12.3793 10.5221 12.3793 10.292C12.3793 10.0619 12.1901 9.87535 11.9568 9.87535Z" fill="#312D75"/>
<path d="M11.9568 12.5836H6.7179C6.48455 12.5836 6.2954 12.7701 6.2954 13.0002C6.2954 13.2304 6.48455 13.4169 6.7179 13.4169H11.9568C12.1901 13.4169 12.3793 13.2304 12.3793 13.0002C12.3793 12.7701 12.1901 12.5836 11.9568 12.5836Z" fill="#312D75"/>
<path d="M17.9985 15.7085V2.58388C18.0338 1.74471 17.3726 1.03617 16.5217 1.00132C16.4859 0.999845 16.45 0.999606 16.4141 1.0006H7.33051C6.40102 1.0006 5.53492 1.66723 5.53492 2.58388V3.29218H4.79559C3.82906 3.31312 3.04419 4.06891 3 5.02128V18.1667C3.0275 18.4207 3.18778 18.642 3.42249 18.75C3.66546 18.8559 3.94919 18.8065 4.14072 18.625L5.42931 17.4792L6.97142 18.8333C7.08645 18.9386 7.23703 18.9979 7.39391 19C7.55003 18.9943 7.69935 18.9354 7.81641 18.8333L9.33737 17.4792L10.8583 18.8333C11.0989 19.0455 11.4627 19.0455 11.7033 18.8333L13.2454 17.4792L14.5129 18.625C14.6664 18.8113 14.9324 18.8637 15.1466 18.75C15.3565 18.6312 15.4795 18.4049 15.4635 18.1667V15.2084L15.717 15.0209L17.0056 16.1668C17.1247 16.2788 17.2846 16.3389 17.4492 16.3334C17.5222 16.3399 17.5955 16.3255 17.6604 16.2918C17.8825 16.1827 18.0159 15.9525 17.9985 15.7085ZM14.6185 17.7084L13.6257 16.7501C13.4019 16.5246 13.0369 16.5153 12.8018 16.7293L11.2597 18.0834L9.75982 16.7293C9.51285 16.5343 9.1618 16.5343 8.91483 16.7293L7.39387 18.0834L5.85176 16.7293C5.58534 16.5139 5.1994 16.5228 4.94342 16.7501L3.84495 17.7084V5.02132C3.8872 4.52895 4.29486 4.14479 4.79555 4.12553H13.8791C14.3439 4.12553 14.6185 4.563 14.6185 5.02132V17.7084ZM17.1535 2.58388V15.2501L16.0973 14.2918C15.9283 14.1252 15.886 14.0835 15.4635 14.146V5.02132C15.4635 4.10468 14.8087 3.29222 13.8792 3.29222H6.37991V2.58388C6.37991 2.12556 6.86576 1.83391 7.33051 1.83391H16.4141C16.7983 1.80927 17.13 2.09641 17.155 2.4753C17.1574 2.51147 17.1569 2.54779 17.1535 2.58388Z" fill="#312D75"/>
<path d="M6.7179 8.00039H9.42183C9.65518 8.00039 9.84433 7.81385 9.84433 7.58373C9.84433 7.35361 9.65518 7.16708 9.42183 7.16708H6.7179C6.48455 7.16708 6.2954 7.35361 6.2954 7.58373C6.2954 7.81385 6.48459 8.00039 6.7179 8.00039Z" stroke="#312D75" stroke-width="0.3"/>
<path d="M11.9568 9.87535H6.7179C6.48455 9.87535 6.2954 10.0619 6.2954 10.292C6.2954 10.5221 6.48455 10.7087 6.7179 10.7087H11.9568C12.1901 10.7087 12.3793 10.5221 12.3793 10.292C12.3793 10.0619 12.1901 9.87535 11.9568 9.87535Z" stroke="#312D75" stroke-width="0.3"/>
<path d="M11.9568 12.5836H6.7179C6.48455 12.5836 6.2954 12.7701 6.2954 13.0002C6.2954 13.2304 6.48455 13.4169 6.7179 13.4169H11.9568C12.1901 13.4169 12.3793 13.2304 12.3793 13.0002C12.3793 12.7701 12.1901 12.5836 11.9568 12.5836Z" stroke="#312D75" stroke-width="0.3"/>
<path d="M17.9985 15.7085V2.58388C18.0338 1.74471 17.3726 1.03617 16.5217 1.00132C16.4859 0.999845 16.45 0.999606 16.4141 1.0006H7.33051C6.40102 1.0006 5.53492 1.66723 5.53492 2.58388V3.29218H4.79559C3.82906 3.31312 3.04419 4.06891 3 5.02128V18.1667C3.0275 18.4207 3.18778 18.642 3.42249 18.75C3.66546 18.8559 3.94919 18.8065 4.14072 18.625L5.42931 17.4792L6.97142 18.8333C7.08645 18.9386 7.23703 18.9979 7.39391 19C7.55003 18.9943 7.69935 18.9354 7.81641 18.8333L9.33737 17.4792L10.8583 18.8333C11.0989 19.0455 11.4627 19.0455 11.7033 18.8333L13.2454 17.4792L14.5129 18.625C14.6664 18.8113 14.9324 18.8637 15.1466 18.75C15.3565 18.6312 15.4795 18.4049 15.4635 18.1667V15.2084L15.717 15.0209L17.0056 16.1668C17.1247 16.2788 17.2846 16.3389 17.4492 16.3334C17.5222 16.3399 17.5955 16.3255 17.6604 16.2918C17.8825 16.1827 18.0159 15.9525 17.9985 15.7085ZM14.6185 17.7084L13.6257 16.7501C13.4019 16.5246 13.0369 16.5153 12.8018 16.7293L11.2597 18.0834L9.75982 16.7293C9.51285 16.5343 9.1618 16.5343 8.91483 16.7293L7.39387 18.0834L5.85176 16.7293C5.58534 16.5139 5.1994 16.5228 4.94342 16.7501L3.84495 17.7084V5.02132C3.8872 4.52895 4.29486 4.14479 4.79555 4.12553H13.8791C14.3439 4.12553 14.6185 4.563 14.6185 5.02132V17.7084ZM17.1535 2.58388V15.2501L16.0973 14.2918C15.9283 14.1252 15.886 14.0835 15.4635 14.146V5.02132C15.4635 4.10468 14.8087 3.29222 13.8792 3.29222H6.37991V2.58388C6.37991 2.12556 6.86576 1.83391 7.33051 1.83391H16.4141C16.7983 1.80927 17.13 2.09641 17.155 2.4753C17.1574 2.51147 17.1569 2.54779 17.1535 2.58388Z" stroke="#312D75" stroke-width="0.3"/>
</svg>
