<svg width="15" height="20" viewBox="0 0 15 20" fill="none" xmlns="http://www.w3.org/2000/svg">
<path d="M12.8125 7.7H12.3V5.5C12.3 2.99064 10.2594 0.95 7.75 0.95C5.24064 0.95 3.2 2.99064 3.2 5.5V7.7H2.6875C1.7299 7.7 0.95 8.47912 0.95 9.4375V17.3125C0.95 18.2709 1.7299 19.05 2.6875 19.05H12.8125C13.7701 19.05 14.55 18.2709 14.55 17.3125V9.4375C14.55 8.47912 13.7701 7.7 12.8125 7.7ZM11.075 7.7H4.425V5.5C4.425 3.66686 5.91686 2.175 7.75 2.175C9.58314 2.175 11.075 3.66686 11.075 5.5V7.7ZM3.8125 8.925H11.6875L12.8125 8.925C13.0947 8.925 13.325 9.15466 13.325 9.4375V17.3125C13.325 17.5953 13.0947 17.825 12.8125 17.825H2.6875C2.40532 17.825 2.175 17.5953 2.175 17.3125V9.4375C2.175 9.15466 2.40532 8.925 2.6875 8.925L3.8125 8.925ZM6.2 12.25C6.2 12.8874 6.58649 13.436 7.1375 13.6739V15.4375C7.1375 15.7756 7.41189 16.05 7.75 16.05C8.08811 16.05 8.3625 15.7756 8.3625 15.4375V13.6739C8.91351 13.436 9.3 12.8874 9.3 12.25C9.3 11.3951 8.60486 10.7 7.75 10.7C6.89514 10.7 6.2 11.3951 6.2 12.25ZM7.425 12.25C7.425 12.0707 7.5713 11.925 7.75 11.925C7.9287 11.925 8.075 12.0707 8.075 12.25C8.075 12.4293 7.9287 12.575 7.75 12.575C7.5713 12.575 7.425 12.4293 7.425 12.25Z" fill="#312D75" stroke="#312D75" stroke-width="0.1"/>
</svg>
