<svg width="100" height="100" viewBox="0 0 100 100" fill="none" xmlns="http://www.w3.org/2000/svg">
<circle cx="50" cy="50" r="50" fill="#EAF5FF"/>
<circle opacity="0.4" cx="50.0106" cy="37.6161" r="12.6161" stroke="#312D75" stroke-width="2" stroke-linecap="round" stroke-linejoin="round"/>
<path fill-rule="evenodd" clip-rule="evenodd" d="M30 67.7785C29.9967 66.8916 30.195 66.0156 30.5801 65.2166C31.7885 62.7997 35.1963 61.5188 38.024 60.9388C40.0634 60.5036 42.1309 60.2128 44.2112 60.0687C48.0628 59.7304 51.9365 59.7304 55.788 60.0687C57.8682 60.2145 59.9356 60.5052 61.9752 60.9388C64.803 61.5188 68.2107 62.6789 69.4192 65.2166C70.1936 66.8452 70.1936 68.7359 69.4192 70.3645C68.2107 72.9023 64.803 74.0624 61.9752 74.6182C59.9382 75.0715 57.87 75.3704 55.788 75.5125C52.6532 75.7782 49.5038 75.8267 46.3622 75.6575C45.6372 75.6575 44.9363 75.6575 44.2112 75.5125C42.1371 75.3721 40.0767 75.0732 38.0482 74.6182C35.1963 74.0624 31.8127 72.9023 30.5801 70.3645C30.197 69.5563 29.9988 68.6729 30 67.7785Z" stroke="#312D75" stroke-width="2" stroke-linecap="round" stroke-linejoin="round"/>
</svg>
