<svg width="31" height="31" viewBox="0 0 31 31" fill="none" xmlns="http://www.w3.org/2000/svg">
<g clip-path="url(#clip0)">
<path d="M18.2732 16.5683C17.7669 16.3874 17.4401 15.9676 17.4401 15.4988C17.4401 15.0312 17.7669 14.6127 18.2732 14.4319C21.9532 13.1156 23.8984 9.24196 23.8984 3.22924C23.8984 2.87274 23.6091 2.58338 23.2526 2.58338C22.8961 2.58338 22.6067 2.87274 22.6067 3.22924C22.6067 8.72399 21.0025 12.0836 17.8392 13.2151C16.8123 13.582 16.1484 14.4796 16.1484 15.5014C16.1484 16.5218 16.8123 17.4182 17.8392 17.785C21.0025 18.9165 22.6067 22.2761 22.6067 27.7709C22.6067 28.1274 22.8961 28.4167 23.2526 28.4167C23.6091 28.4167 23.8984 28.1274 23.8984 27.7709C23.8984 21.7582 21.9532 17.8844 18.2732 16.5683Z" fill="#312D75" stroke="#312D75" stroke-width="0.4"/>
<path d="M13.1608 13.2149C9.99752 12.0834 8.39327 8.72382 8.39327 3.22907C8.39327 2.87257 8.10392 2.58321 7.74742 2.58321C7.39092 2.58321 7.10156 2.87257 7.10156 3.22907C7.10156 9.2418 9.04681 13.1155 12.7268 14.4317C13.2331 14.6125 13.5599 15.0323 13.5599 15.5012C13.5599 15.9688 13.2331 16.3873 12.7268 16.5681C9.04681 17.8843 7.10156 21.758 7.10156 27.7707C7.10156 28.1272 7.39092 28.4166 7.74742 28.4166C8.10392 28.4166 8.39327 28.1272 8.39327 27.7707C8.39327 22.276 9.99752 18.9163 13.1608 17.7848C14.1877 17.418 14.8516 16.5203 14.8516 15.4986C14.8516 14.4782 14.1877 13.5818 13.1608 13.2149Z" fill="#312D75" stroke="#312D75" stroke-width="0.4"/>
<path d="M24.5442 0H6.46094C5.39271 0 4.52344 0.869272 4.52344 1.9375C4.52344 3.00573 5.39271 3.875 6.46094 3.875H24.5443C25.6125 3.875 26.4818 3.00573 26.4818 1.9375C26.4817 0.869272 25.6125 0 24.5442 0ZM24.5442 2.58335H6.46094C6.10571 2.58335 5.81508 2.294 5.81508 1.9375C5.81508 1.581 6.10571 1.29165 6.46094 1.29165H24.5443C24.8995 1.29165 25.1901 1.581 25.1901 1.9375C25.1901 2.294 24.8995 2.58335 24.5442 2.58335Z" fill="#312D75" stroke="#312D75" stroke-width="0.4"/>
<path d="M24.5442 27.125H6.46094C5.39271 27.125 4.52344 27.9943 4.52344 29.0625C4.52344 30.1307 5.39271 31 6.46094 31H24.5443C25.6125 31 26.4818 30.1307 26.4818 29.0625C26.4817 27.9943 25.6125 27.125 24.5442 27.125ZM24.5442 29.7084H6.46094C6.10571 29.7084 5.81508 29.419 5.81508 29.0625C5.81508 28.706 6.10571 28.4166 6.46094 28.4166H24.5443C24.8995 28.4166 25.1901 28.706 25.1901 29.0625C25.1901 29.419 24.8995 29.7084 24.5442 29.7084Z" fill="#312D75" stroke="#312D75" stroke-width="0.4"/>
</g>
<defs>
<clipPath id="clip0">
<rect width="31" height="31" fill="white"/>
</clipPath>
</defs>
</svg>
