<svg width="24" height="25" viewBox="0 0 24 25" fill="none" xmlns="http://www.w3.org/2000/svg">
<path fill-rule="evenodd" clip-rule="evenodd" d="M1.65516 18.665L0 24.665L6.12413 23.0099C7.90345 24.003 9.88964 24.665 11.9586 24.665C18.5379 24.665 24 19.1201 24 12.5823C24 6.04437 18.5379 0.665039 11.9586 0.665039C5.37933 0.665039 0 6.04437 0 12.5823C0 14.734 0.579328 16.803 1.65516 18.665ZM6.82755 21.065L6.45513 20.8581L2.89657 21.7685L3.84827 18.2926L3.59998 17.9202C2.60688 16.3477 2.06895 14.4857 2.06895 12.5822C2.06895 7.12017 6.49652 2.73398 11.9586 2.73398C17.4206 2.73398 21.931 7.07878 21.931 12.5822C21.931 18.0857 17.4206 22.596 12 22.596C10.1379 22.596 8.35859 22.0167 6.82755 21.065Z" fill="#FEFEFE"/>
<path d="M8.77242 7.03748L7.98624 6.99609C7.73794 6.99609 7.48969 7.07887 7.32417 7.24439C6.95175 7.57542 6.33108 8.19609 6.16556 9.02372C5.87592 10.2651 6.33108 11.7548 7.40695 13.2444C8.48283 14.734 10.5518 17.134 14.1931 18.1685C15.3518 18.4995 16.2621 18.2926 17.007 17.8375C17.5863 17.4651 17.9587 16.8858 18.0828 16.2651L18.207 15.6857C18.2483 15.5202 18.1656 15.3133 18 15.2306L15.3931 14.0306C15.2276 13.9478 15.0207 13.9892 14.8966 14.1547L13.8621 15.4788C13.7793 15.5616 13.6552 15.603 13.5311 15.5616C12.8276 15.3133 10.469 14.3202 9.18624 11.8375C9.14485 11.7134 9.14485 11.5892 9.22763 11.5065L10.2207 10.3892C10.3035 10.2651 10.3448 10.0996 10.3035 9.97542L9.1035 7.28578C9.06206 7.16161 8.93794 7.03748 8.77242 7.03748Z" fill="#FEFEFE"/>
</svg>
